<?xml version="1.0" standalone="no"?>
<!DOCTYPE svg PUBLIC "-//W3C//DTD SVG 20010904//EN"
 "http://www.w3.org/TR/2001/REC-SVG-20010904/DTD/svg10.dtd">
<svg version="1.0" xmlns="http://www.w3.org/2000/svg"
 width="1024.000000pt" height="1024.000000pt" viewBox="0 0 1024.000000 1024.000000"
 preserveAspectRatio="xMidYMid meet">
<metadata>
Created by potrace 1.14, written by Peter Selinger 2001-2017
</metadata>
<g transform="translate(0.000000,1024.000000) scale(0.100000,-0.100000)"
fill="#000000" stroke="none">
<path d="M5540 8741 c-185 -26 -375 -133 -550 -310 -115 -116 -221 -252 -412
-526 -276 -398 -270 -391 -355 -431 -43 -21 -101 -93 -126 -157 -15 -37 -20
-74 -19 -128 l0 -76 -55 -7 c-91 -11 -122 -31 -152 -98 l-26 -58 -190 8 c-309
12 -651 9 -730 -7 -173 -33 -368 -174 -401 -289 -14 -46 -15 -66 -5 -125 6
-38 21 -87 33 -110 19 -39 20 -42 3 -52 -9 -5 -81 -57 -158 -115 -381 -283
-527 -496 -749 -1095 -87 -233 -134 -366 -142 -397 l-6 -28 181 0 181 0 -4 75
-3 75 53 0 52 0 0 -100 0 -100 -234 0 c-129 0 -237 -3 -239 -7 -3 -5 -8 -27
-12 -50 l-7 -43 76 0 c73 0 76 -1 76 -24 0 -27 -28 -36 -109 -36 l-47 0 -18
-106 c-9 -58 -14 -109 -11 -112 6 -7 179 -11 479 -12 l149 0 -6 -36 c-11 -65
-5 -64 -272 -64 l-242 0 -6 -38 c-4 -20 -4 -63 -1 -94 l6 -57 -64 -3 -63 -3
-12 -110 c-11 -97 -43 -502 -43 -547 0 -16 14 -18 165 -18 l165 0 0 135 0 135
413 0 c242 0 406 -4 398 -9 -8 -5 -12 -18 -8 -30 6 -24 4 -24 -381 -21 -101 1
-219 -2 -263 -6 l-79 -7 0 -98 0 -99 101 0 100 0 -2 63 c-2 66 -2 67 36 67 24
0 25 -2 25 -65 l0 -65 350 0 350 0 0 -55 0 -55 -687 -2 -688 -3 -3 -27 -3 -28
474 0 474 0 7 -46 c3 -26 6 -66 6 -90 l0 -44 -480 0 -480 0 0 -50 0 -50 185 0
185 0 0 -136 0 -136 -160 4 -160 5 0 -208 0 -209 45 0 45 0 0 -200 0 -200
-188 0 c-203 0 -223 -5 -236 -55 -7 -29 15 -79 39 -89 9 -3 401 -6 870 -6
l854 0 3 -43 c3 -37 6 -42 30 -45 25 -3 27 0 30 40 l3 43 88 3 87 3 -1 27 c0
15 -4 48 -8 74 -10 59 -3 70 40 66 32 -3 34 -5 37 -45 3 -34 0 -42 -17 -48
-16 -5 -21 -15 -21 -41 l0 -34 95 -2 c52 -1 105 -2 117 -2 18 -1 22 5 22 34 1
28 5 36 24 38 19 3 22 -1 22 -32 l0 -36 543 0 544 0 -5 80 -5 80 2177 0 2177
0 25 25 c23 23 25 31 22 112 l-3 88 -38 3 c-37 3 -43 22 -6 22 14 0 19 7 19
25 0 22 4 25 39 25 l38 0 7 58 c3 31 20 221 36 422 17 201 37 433 45 515 13
136 39 456 80 985 20 265 52 651 70 845 8 88 22 252 30 365 8 113 25 320 37
460 12 140 22 291 22 334 l1 80 -114 49 c-62 27 -117 45 -121 40 -4 -4 -17
-129 -29 -278 -20 -255 -57 -700 -116 -1395 -15 -168 -24 -325 -21 -350 4 -34
3 -40 -4 -25 -7 14 -8 -3 -4 -55 4 -41 7 -80 7 -85 0 -6 7 -17 16 -25 13 -12
14 -12 9 1 -3 9 -2 22 3 30 8 13 3 -148 -6 -194 -2 -9 1 -15 6 -11 5 3 9 -10
9 -28 0 -18 -4 -28 -8 -22 -4 7 -8 -36 -9 -95 -1 -86 -71 -1016 -87 -1166 -3
-22 -10 -107 -17 -190 -6 -82 -15 -157 -20 -165 -6 -11 -17 5 -40 58 -18 40
-34 70 -37 67 -5 -5 -30 -278 -26 -283 1 -2 21 -6 43 -9 23 -3 41 -10 41 -14
0 -5 -939 -9 -2145 -9 -1180 0 -2145 2 -2145 4 0 3 25 14 56 26 39 14 100 24
193 31 150 11 189 24 274 86 l51 38 231 6 c202 5 236 9 277 27 55 24 155 91
182 121 16 18 31 21 90 21 80 0 173 19 210 43 20 14 23 21 17 49 -14 69 -9 75
82 82 55 4 98 14 130 30 30 15 47 19 47 11 0 -13 268 -23 770 -30 219 -3 240
-2 201 10 -24 8 -47 13 -50 13 -14 -3 -61 15 -61 22 0 5 -25 10 -55 12 -30 1
-51 0 -47 -4 4 -4 27 -8 52 -10 l45 -3 -52 -5 c-28 -3 -50 -3 -48 0 2 3 -3 11
-11 18 -12 11 -14 10 -14 -3 0 -8 -6 -15 -13 -15 -21 0 -133 59 -149 77 -8 10
1 7 22 -7 19 -13 29 -17 23 -9 -7 9 -9 20 -5 24 4 5 1 5 -5 1 -7 -4 -19 -4
-25 1 -19 11 -39 13 -32 2 3 -5 -2 -9 -11 -9 -19 0 -30 25 -46 108 -8 41 -23
77 -43 105 -18 23 -40 56 -50 72 -10 17 -50 71 -88 122 -43 56 -67 97 -62 104
4 8 3 9 -4 5 -22 -14 -12 12 11 26 31 21 83 37 142 43 50 6 74 15 40 15 -10 0
-32 8 -49 19 -17 10 -56 21 -86 25 -30 3 -90 14 -133 25 -54 14 -85 18 -101
11 -30 -11 -36 -5 -36 39 0 50 -36 119 -73 137 -58 31 -134 30 -228 -3 -76
-26 -89 -28 -120 -17 -50 18 -84 17 -110 -5 -23 -19 -24 -19 -66 11 -35 26
-48 29 -78 24 -19 -4 -50 -20 -69 -36 l-33 -30 -7 428 c-3 235 -3 508 2 607 8
178 8 181 42 243 24 45 56 83 114 134 44 39 81 67 82 62 2 -5 8 -97 14 -204 7
-142 7 -211 -1 -255 -25 -134 -105 -226 -126 -144 -11 39 -27 42 -31 6 -7 -57
56 -87 106 -51 29 20 66 94 82 164 13 53 9 283 -6 451 l-7 66 94 56 c105 63
186 96 302 123 42 10 77 21 77 25 0 3 19 10 43 14 23 4 49 10 57 12 8 2 32 5
52 6 20 0 34 5 31 9 -2 5 8 6 24 3 22 -5 25 -4 13 5 -12 9 -9 10 13 5 19 -4
26 -2 22 4 -3 6 0 9 7 6 22 -8 71 50 72 84 1 17 5 31 9 31 5 0 6 14 2 31 -5
23 -4 30 5 24 8 -5 10 2 7 24 -4 21 -2 29 5 25 8 -5 9 4 5 27 -5 26 -4 30 4
19 8 -12 9 -9 4 13 -4 21 -3 27 6 21 9 -5 10 -2 6 9 -8 21 2 49 14 41 9 -5 11
0 13 29 1 6 4 17 9 22 4 6 30 46 58 90 29 44 90 125 138 180 47 55 85 103 83
108 -1 5 2 6 6 3 9 -6 38 20 44 39 2 6 6 9 10 8 7 -3 177 177 242 255 20 24
33 49 29 54 -3 7 -1 8 5 4 11 -6 38 31 34 47 -1 4 2 7 7 7 14 0 62 80 55 92
-4 6 -3 8 3 5 13 -8 58 87 48 104 -6 8 -4 10 5 4 10 -6 12 -4 7 9 -4 9 -3 14
2 11 12 -7 24 31 15 46 -4 7 -3 9 3 6 13 -8 46 70 37 85 -4 6 -3 8 3 5 14 -9
44 103 51 187 4 54 2 67 -8 61 -9 -5 -10 -2 -5 15 5 15 4 20 -3 16 -6 -4 -16
2 -21 12 -6 11 -21 20 -34 20 -14 0 -34 9 -46 21 -22 22 -12 28 20 10 11 -6
29 -12 41 -14 16 -4 18 -2 7 11 -6 8 -14 12 -17 10 -6 -7 -36 10 -91 51 -50
38 -64 51 -42 38 10 -6 12 -4 7 4 -5 7 -10 10 -13 7 -9 -8 -44 14 -38 24 3 4
-30 8 -74 7 -56 -1 -84 3 -97 13 -10 9 -15 10 -10 3 5 -9 2 -11 -8 -7 -12 5
-13 11 -6 24 7 13 6 21 -2 26 -6 4 -8 3 -5 -3 4 -6 0 -16 -8 -23 -8 -7 -15 -9
-15 -5 0 4 -7 2 -15 -5 -8 -7 -15 -10 -15 -7 0 3 -16 1 -35 -3 -20 -4 -35 -4
-35 1 0 5 -5 9 -11 9 -5 0 -7 -4 -4 -10 3 -5 1 -10 -4 -10 -19 0 -12 19 10 31
17 8 20 8 14 -1 -5 -8 -3 -11 6 -8 8 3 13 11 11 17 -1 7 2 10 8 6 6 -3 7 -11
4 -17 -4 -6 -3 -8 3 -5 5 3 22 8 37 11 37 7 45 16 15 17 -13 0 -33 2 -43 4
-11 2 -27 0 -37 -5 -21 -12 -44 10 -29 28 7 8 7 9 -1 3 -6 -5 -19 -7 -28 -4
-14 4 -14 3 -1 -6 8 -6 10 -11 5 -11 -6 0 -16 5 -22 11 -9 9 -18 5 -38 -15
-23 -23 -26 -24 -20 -6 4 11 2 20 -4 20 -6 0 -11 -5 -11 -11 0 -6 -9 -8 -20
-4 -28 9 -25 -9 5 -29 14 -9 24 -24 24 -34 -1 -16 -2 -16 -6 1 -2 9 -9 15 -14
11 -5 -3 -7 -10 -4 -15 4 -5 2 -9 -3 -9 -16 0 -22 13 -11 26 18 22 -9 26 -31
4 -11 -11 -20 -15 -20 -10 0 17 5 25 13 22 5 -1 6 2 2 8 -4 7 -12 7 -25 0 -10
-6 -28 -9 -40 -7 -22 3 -52 27 -34 27 6 0 11 7 11 15 0 8 -3 12 -7 10 -3 -2
-12 0 -20 6 -12 7 -11 9 4 9 11 0 27 -7 37 -16 13 -12 19 -12 25 -3 5 8 3 10
-6 4 -9 -5 -11 -4 -6 3 5 9 13 9 29 0 12 -6 24 -12 27 -12 3 -1 4 -7 2 -13 -4
-19 15 -16 22 3 3 9 12 14 19 12 6 -2 25 8 41 23 27 25 19 35 -11 16 -9 -6
-11 -3 -7 8 4 8 11 15 18 14 27 -3 46 2 46 12 0 7 -9 9 -24 5 -17 -4 -26 -1
-30 10 -5 13 -1 15 17 10 30 -7 69 3 60 17 -4 6 4 8 21 3 20 -5 26 -4 20 5 -5
8 2 10 25 7 17 -2 31 -1 31 4 0 5 9 6 20 3 13 -4 20 -2 21 7 0 7 5 2 10 -11 7
-17 15 -22 29 -18 11 3 18 2 15 -3 -3 -4 2 -11 11 -14 8 -3 13 -2 10 3 -4 5 3
7 15 4 16 -4 17 -8 7 -14 -7 -5 -11 -9 -8 -9 89 -9 118 -7 113 6 -3 9 -23 22
-45 31 -29 12 -36 18 -26 25 10 7 10 11 1 14 -20 9 -3 33 20 29 19 -4 17 0
-11 26 -27 24 -36 28 -48 18 -8 -6 -14 -8 -14 -4 0 4 -7 2 -15 -5 -9 -8 -15
-9 -15 -2 0 6 -9 9 -21 7 -27 -5 -100 60 -92 82 4 10 2 14 -4 10 -12 -8 -39
20 -29 30 3 3 6 2 6 -3 0 -18 40 -10 46 9 6 18 7 18 32 -4 15 -13 -22 26 -83
86 -60 60 -114 108 -118 107 -5 -2 -7 3 -4 10 6 18 -31 68 -51 68 -12 0 -14 3
-5 8 9 6 3 17 -21 41 -22 22 -34 28 -32 18 3 -20 14 -32 29 -32 7 0 12 -7 12
-15 0 -24 24 -60 41 -60 8 0 13 -4 10 -9 -3 -4 1 -17 9 -27 19 -25 19 -38 0
-30 -8 3 -15 1 -15 -4 0 -14 18 -21 25 -10 4 6 12 7 18 3 7 -4 15 -8 20 -9 4
-1 10 -2 15 -3 4 -1 -1 -6 -11 -12 -10 -6 -14 -15 -10 -22 4 -7 0 -6 -10 2 -9
7 -14 18 -10 23 3 6 0 8 -8 6 -8 -3 -41 3 -75 12 -33 10 -88 21 -121 25 -56 6
-61 9 -58 30 1 17 -2 22 -12 18 -8 -3 -13 -14 -10 -24 3 -11 1 -19 -3 -19 -5
0 -10 -6 -13 -12 -2 -7 -2 0 1 16 2 17 -1 32 -9 37 -10 6 -11 9 -1 9 6 0 12
11 12 25 0 14 4 25 10 25 5 0 9 3 7 8 -1 4 2 7 8 7 5 0 9 -4 7 -8 -1 -5 2 -6
8 -2 15 9 12 -11 -4 -24 -10 -8 -16 -9 -19 -1 -3 6 -5 6 -3 -1 1 -7 10 -13 19
-15 24 -3 36 45 14 58 -9 5 -14 15 -11 23 4 8 11 12 18 8 8 -4 7 -2 -1 7 -13
14 -48 6 -38 -10 11 -17 -17 -36 -47 -32 -16 2 -33 14 -39 25 -10 17 -9 19 6
14 9 -4 20 -7 23 -7 4 0 0 -5 -8 -10 -13 -8 -13 -10 1 -10 16 0 36 29 21 31
-4 0 -15 2 -26 4 -10 2 -26 -1 -36 -7 -10 -7 -23 -7 -33 -2 -14 8 -13 14 14
42 17 18 24 32 17 32 -10 1 -9 4 2 13 17 13 20 31 6 44 -6 5 -6 2 -1 -7 7 -12
6 -13 -7 -3 -15 13 -28 8 -28 -9 0 -5 4 -7 9 -3 5 3 12 1 16 -5 3 -6 0 -13 -9
-16 -8 -3 -13 -13 -11 -23 4 -20 -25 -25 -38 -7 -6 7 -7 4 -3 -7 4 -12 2 -16
-6 -11 -7 4 -8 3 -4 -4 4 -6 14 -8 24 -5 14 6 15 4 5 -9 -7 -8 -10 -18 -6 -21
10 -11 -20 -8 -37 3 -12 7 -12 10 -1 10 7 0 11 6 8 14 -3 7 3 26 14 42 10 16
19 23 19 16 0 -7 5 -10 10 -7 6 4 8 15 5 25 -3 10 -1 21 4 24 6 4 8 13 4 21
-3 10 1 15 12 15 10 0 13 4 9 13 -5 8 -2 8 9 -2 19 -15 23 -26 6 -15 -7 4 -10
1 -7 -6 2 -7 12 -14 22 -16 27 -4 31 -13 17 -37 -13 -20 -13 -21 3 -8 17 14
17 24 1 66 -7 17 -5 16 13 -4 27 -29 27 -32 4 -62 -24 -31 -34 -59 -22 -59 6
0 10 7 10 15 0 8 5 15 10 15 6 0 10 8 10 18 0 15 2 15 11 2 8 -12 9 -10 4 8
-7 25 0 28 19 9 11 -11 11 -16 0 -32 -16 -22 -18 -55 -4 -55 6 0 10 6 8 13 -2
7 0 12 3 12 3 0 12 5 20 12 12 10 21 7 44 -13 17 -14 29 -33 27 -42 -2 -15 -1
-15 8 -2 9 11 13 12 17 2 2 -6 9 -10 14 -6 20 12 7 33 -35 58 -24 14 -46 33
-50 41 -3 9 -11 13 -16 10 -6 -4 -9 -1 -8 7 2 7 -3 12 -10 10 -8 -1 -11 2 -8
7 12 19 -114 154 -146 156 -3 0 -10 4 -15 9 -5 6 -2 6 7 1 8 -4 -1 9 -20 29
-19 20 -40 34 -47 32 -7 -3 -12 0 -10 7 1 7 -7 12 -18 12 -11 0 -26 7 -33 15
-8 8 -11 9 -7 3 3 -7 1 -13 -4 -13 -6 0 -11 5 -11 11 0 6 -7 8 -16 5 -8 -3
-12 -2 -9 4 3 6 -1 10 -9 10 -9 0 -16 5 -16 11 0 5 6 7 13 3 6 -4 -4 10 -23
30 -50 53 -195 150 -211 141 -7 -5 -10 -4 -6 2 8 13 -20 26 -35 16 -6 -3 -8
-1 -5 5 4 6 -24 23 -70 43 -70 29 -90 32 -193 35 -63 1 -140 -1 -170 -5z m672
-229 c14 -13 24 -30 21 -38 -4 -11 -7 -11 -20 1 -8 8 -12 19 -8 25 3 6 -1 7
-10 4 -10 -4 -14 -2 -10 7 4 10 -4 15 -22 16 -15 0 -29 6 -31 12 -2 6 -9 8
-15 4 -16 -10 -41 -13 -32 -5 4 4 10 6 13 5 4 -1 13 3 20 9 10 9 10 14 0 27
-15 19 54 -30 94 -67z m-122 -10 c-6 -2 -7 -9 -3 -15 3 -7 2 -8 -3 -4 -5 5 -9
12 -9 15 0 4 -4 13 -9 20 -7 11 -4 11 13 0 12 -7 17 -14 11 -16z m60 -7 c12
-1 44 -24 33 -25 -6 0 -15 5 -18 10 -4 6 -10 8 -15 5 -4 -3 -14 3 -21 12 -12
15 -12 16 1 8 8 -6 17 -10 20 -10z m-20 -21 c0 -8 -19 -13 -24 -6 -3 5 1 9 9
9 8 0 15 -2 15 -3z m281 -101 c13 -16 12 -17 -3 -4 -10 7 -18 15 -18 17 0 8 8
3 21 -13z m-64 -102 c2 -26 2 -26 -8 -3 -5 14 -13 20 -20 16 -7 -4 -9 -3 -6 3
12 19 33 9 34 -16z m106 1 c11 -12 13 -22 7 -32 -8 -12 -10 -10 -10 8 0 14 -8
26 -22 32 -15 6 -17 9 -7 9 9 1 23 -7 32 -17z m72 -2 c10 -11 16 -20 13 -20
-3 0 -13 9 -23 20 -10 11 -16 20 -13 20 3 0 13 -9 23 -20z m-219 -18 c0 -10
-6 -19 -13 -19 -8 0 -9 6 -2 19 5 10 11 18 12 18 2 0 3 -8 3 -18z m41 -34 c-3
-8 -6 -5 -6 6 -1 11 2 17 5 13 3 -3 4 -12 1 -19z m218 2 c10 -11 16 -20 13
-20 -3 0 -13 9 -23 20 -10 11 -16 20 -13 20 3 0 13 -9 23 -20z m-292 -17 c-4
-10 -2 -14 4 -10 5 3 10 0 10 -8 0 -8 -4 -12 -8 -9 -4 2 -9 -1 -11 -8 -2 -6
-9 -8 -16 -4 -9 5 -8 13 4 32 19 28 26 31 17 7z m59 -35 c-8 -8 -9 -4 -5 13 4
13 8 18 11 10 2 -7 -1 -18 -6 -23z m-97 -28 c4 -6 1 -9 -7 -8 -7 2 -12 -4 -10
-12 2 -8 0 -12 -4 -7 -4 4 -33 -16 -63 -45 -48 -46 -47 -44 9 15 35 37 65 67
67 67 1 0 5 -5 8 -10z m85 6 c0 -2 -8 -10 -17 -17 -16 -13 -17 -12 -4 4 13 16
21 21 21 13z m294 -21 c-4 -8 -11 -12 -16 -9 -6 4 -5 10 3 15 19 12 19 11 13
-6z m-347 -67 c-3 -8 -6 -5 -6 6 -1 11 2 17 5 13 3 -3 4 -12 1 -19z m100 -13
c0 -8 -4 -12 -9 -9 -5 3 -6 10 -3 15 9 13 12 11 12 -6z m87 -16 c-3 -5 -10 -7
-15 -4 -5 4 -9 2 -9 -4 0 -5 6 -12 13 -14 9 -4 9 -6 0 -6 -19 -1 -26 18 -13
34 13 16 34 10 24 -6z m-177 -21 c-3 -8 -6 -5 -6 6 -1 11 2 17 5 13 3 -3 4
-12 1 -19z m51 1 c-11 -7 -10 -9 1 -9 8 0 11 -3 8 -6 -9 -9 -38 16 -32 27 3 4
13 5 21 2 13 -5 13 -7 2 -14z m159 5 c-3 -3 -12 -4 -19 -1 -8 3 -5 6 6 6 11 1
17 -2 13 -5z m-396 -28 c-1 -3 -3 -5 -5 -3 -2 1 -14 -7 -27 -18 l-24 -20 24
28 c22 24 34 29 32 13z m-51 -50 c0 -2 -8 -10 -17 -17 -16 -13 -17 -12 -4 4
13 16 21 21 21 13z m849 -60 c-3 -3 -11 5 -18 17 -13 21 -12 21 5 5 10 -10 16
-20 13 -22z m-422 9 c0 -8 -4 -12 -9 -9 -5 3 -6 10 -3 15 9 13 12 11 12 -6z
m-357 -19 c0 -2 -8 -10 -17 -17 -16 -13 -17 -12 -4 4 13 16 21 21 21 13z m828
-39 c20 -22 21 -23 2 -24 -22 -2 -45 21 -35 37 8 13 8 13 33 -13z m82 -85 c-5
-2 -8 -7 -5 -12 3 -5 -2 -7 -10 -6 -9 1 -14 6 -13 12 2 5 6 8 11 7 16 -6 6 18
-13 29 -11 7 -20 17 -20 22 0 5 14 -3 30 -19 17 -17 26 -31 20 -33z m191 -169
c13 -16 12 -17 -3 -4 -10 7 -18 15 -18 17 0 8 8 3 21 -13z m-367 -122 c10 -16
-18 -30 -31 -16 -10 11 -10 15 0 18 19 8 25 8 31 -2z m-69 -51 c-3 -5 -13 -6
-21 -3 -12 4 -13 8 -3 14 15 9 32 2 24 -11z m55 0 c0 -5 -4 -10 -10 -10 -5 0
-10 5 -10 10 0 6 5 10 10 10 6 0 10 -4 10 -10z m-183 -16 c-3 -3 -12 -4 -19
-1 -8 3 -5 6 6 6 11 1 17 -2 13 -5z m-77 -24 c0 -5 -2 -10 -4 -10 -3 0 -8 5
-11 10 -3 6 -1 10 4 10 6 0 11 -4 11 -10z m104 -5 c-4 -8 -10 -12 -15 -9 -14
8 -10 24 6 24 9 0 12 -6 9 -15z m266 -35 c6 -11 8 -20 6 -20 -3 0 -10 9 -16
20 -6 11 -8 20 -6 20 3 0 10 -9 16 -20z m-405 0 c4 -6 3 -10 -2 -9 -21 4 -24
-2 -12 -18 13 -16 12 -17 -4 -4 -13 10 -15 17 -6 27 14 17 16 17 24 4z m200
-23 c3 -4 2 -5 -2 -2 -3 3 -16 -2 -29 -10 -20 -13 -24 -12 -36 2 -8 10 -8 14
-1 10 6 -4 14 -3 17 1 6 10 43 9 51 -1z m-267 -46 c-15 -18 -27 -25 -34 -20
-6 5 -14 6 -17 2 -4 -3 -7 -4 -7 -1 0 3 10 13 22 24 12 10 18 13 13 5 -5 -9
-3 -12 6 -9 8 3 15 10 15 16 3 22 4 23 14 17 6 -4 1 -17 -12 -34z m176 24 c-4
-11 -2 -13 9 -9 19 7 33 -14 19 -28 -8 -8 -16 -7 -27 2 -17 14 -21 50 -5 50 5
0 7 -7 4 -15z m160 -2 c43 -5 45 -13 4 -13 -21 0 -41 7 -49 17 -12 14 -12 16
1 8 8 -5 27 -10 44 -12z m-215 -7 c9 -11 8 -15 -6 -20 -10 -4 -14 -4 -10 0 4
4 2 13 -4 21 -7 8 -8 13 -1 13 5 0 15 -6 21 -14z m58 -43 c5 -13 -41 -23 -59
-12 -11 7 -11 9 0 9 7 0 11 4 8 8 -3 5 7 8 21 7 15 0 28 -6 30 -12z m-97 -9
c0 -8 -19 -13 -24 -6 -3 5 1 9 9 9 8 0 15 -2 15 -3z m718 -37 c11 -10 27 -15
38 -12 12 3 10 1 -4 -7 -15 -7 -26 -8 -30 -2 -8 11 -98 11 -109 1 -3 -4 -11
-3 -17 3 -19 15 -76 22 -76 9 0 -6 9 -9 19 -6 10 2 25 1 32 -4 9 -6 -2 -9 -33
-7 -26 1 -45 5 -42 9 2 4 0 10 -6 14 -5 3 -10 1 -10 -4 0 -14 -32 -14 -48 -1
-6 6 -10 7 -7 3 3 -4 -7 -12 -22 -18 -24 -10 -32 -9 -52 7 -13 10 -35 19 -50
19 -21 1 -20 3 9 8 19 4 115 7 212 6 153 -1 179 -3 196 -18z m-865 -47 c11
-13 10 -13 -5 -1 -10 7 -17 25 -17 40 l2 26 4 -25 c3 -14 10 -32 16 -40z m190
43 c-3 -6 -13 -11 -23 -10 -10 1 -17 4 -14 8 2 4 -15 6 -38 4 -27 -3 -37 -1
-29 5 22 13 109 7 104 -7z m744 11 c-3 -3 -12 -4 -19 -1 -8 3 -5 6 6 6 11 1
17 -2 13 -5z m-550 -10 c-3 -3 -12 -4 -19 -1 -8 3 -5 6 6 6 11 1 17 -2 13 -5z
m-419 -25 c3 -11 1 -11 -6 -1 -5 7 -17 10 -28 6 -16 -5 -16 -4 -4 5 18 13 32
10 38 -10z m365 14 c-7 -2 -19 -2 -25 0 -7 3 -2 5 12 5 14 0 19 -2 13 -5z
m157 -3 c11 -8 9 -9 -12 -8 -16 1 -28 6 -28 10 0 11 22 10 40 -2z m-390 -10
c8 -5 11 -10 5 -10 -5 0 -17 5 -25 10 -8 5 -10 10 -5 10 6 0 17 -5 25 -10z
m236 -14 c-29 -18 -30 -19 -11 -27 16 -6 17 -8 3 -8 -9 -1 -20 4 -24 11 -5 8
-9 6 -14 -6 -6 -17 -7 -17 -26 1 -11 10 -15 15 -9 11 6 -4 17 -3 24 1 9 6 7
10 -9 14 -38 10 -13 23 43 23 l54 -1 -31 -19z m511 8 c-3 -3 -12 -4 -19 -1 -8
3 -5 6 6 6 11 1 17 -2 13 -5z m-902 -22 c-3 -3 -11 0 -18 7 -9 10 -8 11 6 5
10 -3 15 -9 12 -12z m280 9 c3 -5 1 -12 -4 -15 -5 -3 -11 1 -15 9 -6 16 9 21
19 6z m-346 -27 c-6 -8 -14 -12 -17 -9 -3 3 -12 -1 -21 -7 -9 -7 -5 0 8 14 24
28 52 29 30 2z m244 19 c-7 -2 -19 -2 -25 0 -7 3 -2 5 12 5 14 0 19 -2 13 -5z
m75 -11 c2 -7 -5 -12 -17 -12 -13 0 -19 -5 -15 -14 3 -8 -3 -19 -15 -26 -16
-8 -21 -8 -19 2 2 6 -3 12 -9 13 -7 0 -12 5 -10 10 3 12 19 8 29 -8 5 -7 8 -8
8 -1 0 5 -6 16 -12 23 -10 11 -10 13 0 7 6 -4 12 -3 12 3 0 6 7 7 17 4 12 -5
14 -3 8 7 -5 8 -3 11 5 8 8 -2 16 -10 18 -16z m-278 5 c0 -2 -10 -12 -22 -23
l-23 -19 19 23 c18 21 26 27 26 19z m153 -4 c-7 -2 -19 -2 -25 0 -7 3 -2 5 12
5 14 0 19 -2 13 -5z m164 -23 c-1 -10 -3 -17 -6 -15 -2 3 -10 0 -17 -6 -9 -7
-12 -6 -9 8 1 10 8 17 14 16 6 -2 11 2 11 7 0 6 2 10 4 10 3 0 4 -9 3 -20z
m-180 -45 c-9 -7 -14 -15 -10 -18 3 -4 -17 -16 -45 -28 -29 -12 -49 -25 -46
-30 3 -5 -2 -6 -11 -3 -13 5 -13 9 -3 23 12 14 11 15 -5 2 -13 -10 -14 -17 -7
-27 9 -10 6 -11 -12 -7 -18 4 -20 3 -8 -6 8 -6 12 -11 8 -11 -3 0 -15 -3 -25
-6 -15 -5 -16 -4 -3 6 13 10 11 11 -7 7 -13 -3 -26 0 -30 5 -3 7 -1 8 5 4 7
-4 12 -3 12 3 0 6 8 7 17 4 13 -5 15 -3 9 12 -4 11 -4 16 -1 13 4 -4 24 2 45
13 20 11 47 21 59 24 34 6 45 16 30 27 -10 6 -7 7 10 3 17 -5 22 -4 16 5 -6 9
-4 11 5 5 10 -6 10 -11 -3 -20z m-57 -65 c-8 -5 -19 -10 -25 -10 -5 0 -3 5 5
10 8 5 20 10 25 10 6 0 3 -5 -5 -10z m-194 -45 c-1 -8 -5 -18 -9 -22 -8 -7
-37 -14 -37 -8 0 4 42 45 46 45 1 0 1 -7 0 -15z m44 1 c0 -2 -7 -7 -16 -10 -8
-3 -12 -2 -9 4 6 10 25 14 25 6z m325 -57 c-26 -57 -31 -84 -16 -94 12 -7 6
-42 -10 -61 -6 -8 -8 -21 -5 -30 5 -14 4 -15 -9 -4 -8 7 -15 11 -16 9 0 -2 -2
-13 -3 -24 -3 -27 -46 -76 -59 -68 -6 3 -7 1 -4 -4 9 -14 -22 -52 -83 -103
-54 -45 -71 -46 -52 -5 7 15 8 25 2 25 -6 0 -10 -5 -10 -11 0 -5 -4 -7 -10 -4
-6 4 -7 -1 -4 -12 5 -15 4 -15 -8 2 -7 11 -15 42 -16 70 -3 57 3 57 17 -1 l9
-39 1 37 c1 33 8 42 59 81 89 69 168 158 203 230 39 79 50 83 14 6z m-114 -13
c-11 -25 -18 -46 -14 -46 3 0 -2 -9 -11 -19 -10 -11 -15 -25 -11 -31 3 -6 3
-9 -2 -8 -4 1 -34 -23 -67 -55 -32 -31 -64 -57 -70 -56 -7 0 -6 3 1 6 8 2 11
14 8 26 -3 12 -1 36 5 52 8 26 9 24 4 -15 -5 -39 -4 -43 9 -30 45 47 122 149
140 186 27 57 33 50 8 -10z m-314 29 c0 -8 -4 -12 -9 -9 -4 3 -8 9 -8 15 0 5
4 9 8 9 5 0 9 -7 9 -15z m570 -162 c-6 -40 -14 -70 -19 -67 -4 3 -6 -10 -3
-28 l5 -33 -11 34 c-6 19 -7 37 -2 40 4 3 9 42 10 86 1 44 5 96 9 115 8 34 8
34 15 -20 4 -31 2 -87 -4 -127z m20 145 c-3 -8 -6 -5 -6 6 -1 11 2 17 5 13 3
-3 4 -12 1 -19z m-128 -24 c7 4 7 -24 2 -94 -3 -31 -4 -32 -10 -11 -5 21 -8
16 -20 -28 -7 -29 -15 -50 -18 -48 -2 3 1 24 8 47 10 34 10 46 0 62 -11 17
-10 27 6 59 10 22 19 32 21 24 2 -9 7 -13 11 -11z m-612 1 c0 -8 -4 -12 -9 -9
-5 3 -6 10 -3 15 9 13 12 11 12 -6z m320 -67 c-3 -8 -6 -5 -6 6 -1 11 2 17 5
13 3 -3 4 -12 1 -19z m359 -53 c-3 -41 -11 -97 -16 -123 -16 -72 -60 -201 -72
-208 -7 -4 -7 0 0 12 5 11 12 36 16 57 4 21 9 46 12 55 2 9 -2 4 -10 -13 -21
-43 -19 -19 3 40 10 28 22 69 26 93 4 23 10 40 15 37 4 -3 6 4 3 15 -5 20 15
110 24 110 2 0 2 -34 -1 -75z m-799 51 c0 -7 -7 -13 -16 -12 -9 1 -15 -5 -13
-12 1 -8 -2 -11 -9 -6 -9 5 -5 13 10 26 28 22 28 22 28 4z m320 -43 c-3 -10
-5 -4 -5 12 0 17 2 24 5 18 2 -7 2 -21 0 -30z m-299 -8 c-2 -1 -19 -10 -38
-19 -23 -11 -29 -12 -18 -3 10 8 16 16 14 18 -3 2 7 5 20 5 14 1 24 1 22 -1z
m652 -153 c-37 -74 -51 -113 -48 -133 5 -30 -1 -36 -17 -20 -6 5 -19 5 -30 1
-15 -6 -7 -10 38 -20 50 -12 60 -11 68 1 12 20 11 2 -2 -23 -6 -11 -59 -82
-118 -157 -58 -75 -126 -169 -151 -208 -24 -40 -49 -73 -54 -73 -16 0 -304
115 -447 178 -107 47 -243 118 -268 138 -7 6 50 177 75 226 23 45 101 118 150
140 17 8 44 2 125 -30 167 -65 337 -121 444 -148 114 -27 115 -27 115 -14 0 5
-8 7 -17 3 -10 -3 -15 -3 -11 2 4 4 1 14 -7 22 -16 15 -13 20 27 51 12 10 18
10 24 1 4 -7 3 -9 -3 -6 -5 3 -9 -4 -8 -16 1 -12 6 -20 11 -17 14 7 41 64 37
77 -2 6 1 15 8 19 8 4 9 3 5 -4 -4 -7 -2 -12 4 -12 6 0 10 10 8 23 -2 14 2 21
10 19 7 -1 18 11 23 28 6 16 15 30 20 30 6 0 15 15 22 33 9 25 12 28 15 13 2
-10 -19 -66 -48 -124z m-363 86 c-3 -8 -6 -5 -6 6 -1 11 2 17 5 13 3 -3 4 -12
1 -19z m346 -13 c-3 -9 -8 -14 -10 -11 -3 3 -2 9 2 15 9 16 15 13 8 -4z m-44
-60 c-11 -19 -18 -38 -15 -44 3 -5 0 -14 -8 -20 -10 -9 -16 -8 -26 4 -7 8 -8
15 -3 15 6 0 22 18 37 40 32 49 43 53 15 5z m-248 -61 c12 -25 18 -48 15 -51
-12 -12 -37 23 -51 71 -13 42 -13 47 0 36 8 -6 24 -32 36 -56z m446 44 c-3 -8
-6 -5 -6 6 -1 11 2 17 5 13 3 -3 4 -12 1 -19z m-36 -115 c-12 -20 -14 -14 -5
12 4 9 9 14 11 11 3 -2 0 -13 -6 -23z m-1111 3 c0 -2 -8 -10 -17 -17 -16 -13
-17 -12 -4 4 13 16 21 21 21 13z m1100 -34 c0 -5 -7 -17 -15 -28 -14 -18 -14
-17 -4 9 12 27 19 34 19 19z m-1226 -40 c3 -5 -1 -9 -9 -9 -8 0 -12 4 -9 9 3
4 7 8 9 8 2 0 6 -4 9 -8z m-1257 -47 c0 -8 -4 -12 -9 -9 -5 3 -6 10 -3 15 9
13 12 11 12 -6z m97 -54 c-6 -7 38 -51 50 -51 6 0 0 10 -14 21 -17 14 -19 17
-5 10 11 -5 49 -39 84 -75 55 -55 62 -67 51 -80 -10 -14 -10 -16 5 -16 17 0
17 -6 0 -55 -4 -11 -3 -15 2 -9 5 7 16 -5 29 -32 11 -24 16 -40 10 -36 -11 7
-28 11 -58 14 -9 1 -15 5 -12 9 2 4 -3 10 -12 13 -9 4 -13 2 -8 -5 4 -6 0 -15
-7 -20 -10 -6 -5 -9 17 -9 66 0 144 -45 127 -73 -3 -5 -2 -7 4 -4 12 8 47 -50
50 -83 2 -19 0 -21 -7 -10 -11 18 -3 -71 16 -185 17 -99 18 -103 29 -112 4 -4
5 -1 1 7 -4 8 1 4 12 -10 23 -27 37 -84 26 -102 -5 -7 -3 -8 5 -3 10 6 12 -21
8 -121 -8 -186 -7 -217 5 -232 8 -10 8 -12 0 -10 -7 2 -18 -8 -25 -22 -8 -14
-20 -24 -28 -22 -8 2 -11 1 -7 -3 3 -4 10 -6 13 -5 4 1 15 -10 25 -25 14 -22
18 -24 24 -10 3 9 2 13 -3 10 -5 -3 -12 -1 -15 4 -4 5 -2 13 4 16 6 4 8 15 5
26 -4 13 -2 19 9 19 18 0 30 -17 17 -25 -6 -3 -8 -12 -5 -19 7 -17 -22 -76
-37 -76 -6 0 -8 -4 -5 -9 3 -4 -2 -17 -10 -27 -9 -10 -12 -13 -8 -5 5 10 3 12
-5 7 -7 -5 -10 -15 -7 -23 3 -8 1 -11 -4 -8 -10 6 -15 -9 -10 -30 1 -5 -2 -6
-7 -2 -4 5 -8 13 -8 19 0 6 -8 12 -18 14 -10 1 -14 -2 -10 -9 4 -7 0 -8 -12
-3 -15 5 -16 4 -5 -9 10 -12 15 -13 21 -4 5 8 10 5 18 -10 7 -11 9 -22 6 -22
-3 -1 -8 -2 -12 -3 -5 -1 -14 -5 -20 -9 -18 -11 -55 52 -48 81 4 15 2 21 -4
17 -7 -3 -8 0 -5 9 3 9 10 16 15 16 6 0 6 7 0 18 -6 12 -6 23 1 33 8 11 9 11
4 -3 -3 -10 -1 -20 3 -22 5 -3 8 3 7 14 -1 23 -4 24 -28 15 -10 -4 -15 -12
-11 -19 4 -6 -24 17 -63 52 -71 63 -89 97 -53 99 19 2 66 -53 55 -64 -3 -3
-18 2 -33 11 -28 17 -28 17 2 -8 39 -34 57 -19 50 40 -3 24 -3 44 0 44 11 0
44 -34 39 -42 -3 -4 0 -8 5 -8 6 0 11 -4 11 -10 0 -5 -9 -10 -21 -10 -11 0
-18 -4 -15 -9 3 -5 -1 -12 -10 -15 -8 -3 -12 -10 -9 -16 4 -6 11 -8 16 -4 5 3
8 0 7 -8 -2 -7 3 -12 10 -10 8 1 11 -2 7 -8 -3 -5 -2 -10 3 -10 6 0 13 7 16
16 3 8 10 13 15 10 5 -4 8 5 6 19 -2 19 3 25 19 26 15 1 16 3 5 6 -14 3 -15 9
-4 41 8 23 10 45 4 59 -10 27 -6 29 16 7 29 -30 25 -8 -15 75 -22 46 -37 88
-33 94 3 7 3 9 -2 5 -11 -11 -38 29 -29 44 4 7 3 8 -4 4 -12 -7 -36 29 -28 43
6 9 -11 27 -44 46 -67 39 -202 140 -235 176 -22 24 -33 37 -23 31 24 -19 34 4
12 29 -14 15 -20 17 -33 7 -13 -10 -14 -10 -4 2 9 10 10 17 2 27 -7 7 -9 13
-6 13 4 0 27 -23 53 -50 26 -28 88 -81 138 -120 51 -38 100 -78 111 -89 10
-12 27 -21 37 -21 16 0 17 3 6 23 -7 12 -13 27 -13 32 -1 6 -6 9 -13 8 -15 -4
-63 37 -57 47 3 4 -3 7 -13 6 -9 0 -16 5 -14 12 1 8 -2 11 -7 7 -14 -8 -175
150 -167 164 4 6 2 11 -4 11 -6 0 -8 5 -5 10 4 6 10 8 14 6 12 -8 34 11 27 23
-10 16 -31 14 -46 -4 -20 -24 -31 -17 -28 18 2 18 8 31 15 30 7 -2 10 3 7 11
-3 7 2 16 11 20 9 3 13 10 10 16 -3 5 -1 10 5 10 6 0 8 5 4 11 -4 8 -9 7 -15
-2 -4 -7 -5 -17 -3 -21 3 -4 0 -8 -5 -8 -6 0 -10 11 -9 24 3 28 24 28 44 1 16
-22 18 -39 4 -30 -5 3 -7 0 -4 -9 3 -8 12 -12 20 -9 9 3 31 -11 56 -38 40 -42
41 -43 34 -14 -4 17 -7 36 -8 42 -1 7 -13 23 -27 35 l-26 23 20 -25 c11 -14
-16 13 -60 59 -44 47 -79 91 -77 99 2 8 -1 11 -7 8 -5 -4 -13 -1 -17 5 -4 7
-3 9 3 6 5 -3 17 3 26 13 9 11 12 22 7 25 -5 3 -11 1 -15 -5 -4 -6 -11 -8 -16
-5 -5 4 -9 0 -9 -7 -1 -7 -8 0 -16 15 -9 16 -13 31 -10 35 3 3 6 0 6 -7 0 -7
5 -9 10 -6 6 3 13 -1 16 -9 3 -9 11 -13 18 -9 22 14 45 13 40 -1 -3 -8 -1 -17
5 -21 7 -3 8 0 5 10 -5 11 -2 14 12 9 18 -5 18 -5 2 6 -10 6 -18 16 -18 22 0
6 7 5 18 -3 13 -11 13 -9 -2 9 -15 17 -22 19 -28 10 -6 -10 -8 -8 -8 5 0 9 4
17 9 17 25 0 171 -52 171 -61 0 -6 -5 -7 -12 -3 -7 4 -8 3 -4 -4 4 -7 2 -12
-5 -12 -7 0 -9 -3 -6 -6 4 -4 13 -2 20 4 8 7 18 8 22 4 5 -4 5 -1 1 6 -9 15
-1 15 24 2 15 -8 18 -6 16 14 0 15 -5 21 -11 17 -12 -10 -168 62 -158 73 4 4
0 4 -8 1 -8 -3 -35 4 -60 15 -24 11 -36 18 -26 15 10 -2 15 -1 12 5 -3 5 -20
7 -37 3 -29 -6 -31 -5 -25 18 4 13 7 29 7 36 0 8 27 11 89 10 49 -1 87 -4 85
-6z m-161 -128 c-7 -2 -19 -2 -25 0 -7 3 -2 5 12 5 14 0 19 -2 13 -5z m42 -22
c3 -5 2 -12 -3 -15 -5 -3 -9 1 -9 9 0 17 3 19 12 6z m1375 -94 c0 -2 -10 -12
-22 -23 l-23 -19 19 23 c18 21 26 27 26 19z m465 -238 c-72 -72 -168 -165
-215 -207 l-85 -77 -70 4 c-58 4 -65 6 -40 12 23 6 19 7 -17 4 -27 -3 -47 -1
-45 4 1 5 -2 9 -6 10 -10 0 -29 21 -45 50 -20 34 -10 35 13 1 24 -36 61 -50
127 -50 33 0 47 -4 42 -11 -4 -8 0 -8 15 0 12 7 26 9 31 6 6 -4 9 -2 8 3 -3
10 100 112 113 112 5 0 9 7 9 16 0 9 5 12 12 8 7 -5 9 -2 6 8 -4 8 0 15 8 15
7 0 10 -5 7 -11 -3 -6 6 2 20 17 15 15 27 35 27 44 0 13 2 14 17 2 9 -8 14 -9
10 -3 -8 14 140 167 153 159 5 -3 11 -1 15 5 3 5 9 10 13 10 4 0 -52 -59 -123
-131z m-1847 90 c3 -12 2 -12 -6 0 -8 11 -11 9 -15 -10 -4 -22 -4 -22 -6 4 -1
30 19 34 27 6z m12 -32 c0 -7 -4 -17 -9 -22 -5 -6 -11 -26 -14 -45 -4 -33 -4
-33 -5 8 -1 23 2 42 8 42 5 0 7 7 4 15 -4 8 -1 15 5 15 6 0 11 -6 11 -13z m-3
-112 c0 -8 -4 -12 -9 -9 -5 3 -6 10 -3 15 9 13 12 11 12 -6z m1353 -121 c0 -8
-19 -13 -24 -6 -3 5 1 9 9 9 8 0 15 -2 15 -3z m89 -60 c10 -9 -35 -3 -49 6
-11 8 -7 9 15 4 17 -4 32 -8 34 -10z m41 6 c0 -5 -8 -10 -17 -10 -15 0 -16 2
-3 10 19 12 20 12 20 0z m-1334 -151 c1 -9 -4 -16 -12 -16 -9 0 -11 4 -4 12
10 12 4 25 -12 25 -5 0 -6 -6 -2 -12 5 -9 3 -9 -9 1 -9 7 -14 18 -11 23 8 12
47 -14 50 -33z m-115 -16 c11 -15 11 -16 -1 -6 -11 10 -16 9 -27 -5 -13 -15
-13 -15 -3 6 13 27 14 27 31 5z m79 -9 c0 -18 -8 -18 -26 0 -10 11 -11 15 -1
19 16 6 27 -1 27 -19z m181 9 c13 -16 12 -17 -3 -4 -10 7 -18 15 -18 17 0 8 8
3 21 -13z m-546 -33 c10 -11 16 -20 13 -20 -3 0 -13 9 -23 20 -10 11 -16 20
-13 20 3 0 13 -9 23 -20z m343 2 c14 -12 20 -27 17 -42 -5 -28 -15 -39 -15
-17 0 15 -6 19 -27 16 -5 -1 -7 -5 -6 -10 2 -4 -6 -13 -16 -19 -16 -8 -19 -7
-17 7 2 9 8 19 14 21 7 2 9 9 6 14 -4 7 -2 8 4 4 8 -5 12 2 12 18 0 31 1 31
28 8z m57 -15 c-5 -18 -4 -19 5 -7 10 13 11 12 6 -4 -5 -13 2 -28 21 -48 15
-15 23 -28 19 -28 -5 0 -2 -8 5 -17 8 -10 -3 -3 -24 15 -34 29 -40 31 -50 17
-10 -13 -12 -11 -13 11 -2 21 2 25 17 21 10 -3 17 -1 13 4 -3 5 -11 9 -18 9
-14 0 -15 27 -2 48 12 19 28 3 21 -21z m118 -148 c-6 -23 -23 -35 -23 -17 0 9
-3 9 -10 -2 -6 -10 -10 -11 -10 -2 0 6 -6 12 -14 12 -8 0 -17 4 -20 9 -3 4 5
6 18 4 14 -3 32 0 43 6 17 11 17 11 -2 9 -11 -2 -20 2 -20 7 0 6 -4 16 -9 24
-5 7 5 4 21 -9 21 -15 29 -28 26 -41z m-2586 29 c-3 -8 -6 -5 -6 6 -1 11 2 17
5 13 3 -3 4 -12 1 -19z m60 0 c-3 -8 -6 -5 -6 6 -1 11 2 17 5 13 3 -3 4 -12 1
-19z m2183 -12 c0 -2 -8 -10 -17 -17 -16 -13 -17 -12 -4 4 13 16 21 21 21 13z
m231 -29 c-10 -9 -11 -8 -5 6 3 10 9 15 12 12 3 -3 0 -11 -7 -18z m158 -13
c-14 -17 -18 -14 -24 15 -3 18 -1 20 16 10 16 -8 18 -13 8 -25z m46 -24 c-3
-4 2 -11 11 -14 23 -9 6 -28 -19 -21 -17 5 -19 4 -7 -4 18 -12 10 -23 -9 -11
-9 5 -11 14 -6 26 8 18 11 27 14 40 0 3 6 2 11 -1 6 -4 8 -10 5 -15z m-218
-22 c-3 -8 -6 -5 -6 6 -1 11 2 17 5 13 3 -3 4 -12 1 -19z m800 -35 c-3 -10 -5
-2 -5 17 0 19 2 27 5 18 2 -10 2 -26 0 -35z m-1076 20 c13 -16 12 -17 -3 -4
-10 7 -18 15 -18 17 0 8 8 3 21 -13z m524 -13 c-3 -5 0 -10 7 -10 10 0 10 -2
0 -9 -8 -4 -13 -11 -13 -15 3 -23 -2 -27 -8 -6 -4 14 -3 31 2 38 11 14 21 16
12 2z m-113 -44 c16 -23 6 -30 -11 -8 -11 12 -24 22 -30 22 -6 0 -11 5 -11 10
0 12 41 -7 52 -24z m-481 -33 c13 -16 12 -17 -3 -4 -17 13 -22 21 -14 21 2 0
10 -8 17 -17z m-1546 -15 c1 -2 0 -17 -2 -34 -5 -30 -7 -32 -65 -38 -34 -3
-155 -6 -269 -6 l-209 0 0 39 0 40 53 4 c54 5 487 0 492 -5z m282 -30 c-3 -7
-5 -2 -5 12 0 14 2 19 5 13 2 -7 2 -19 0 -25z m-20 0 c-3 -8 -6 -5 -6 6 -1 11
2 17 5 13 3 -3 4 -12 1 -19z m79 6 c-9 -8 -14 -20 -11 -25 4 -5 1 -9 -4 -9
-12 0 -14 11 -5 34 3 9 13 16 21 16 12 0 12 -2 -1 -16z m1772 -20 c-10 -10
-28 6 -28 24 0 15 1 15 17 -1 9 -9 14 -19 11 -23z m-1573 -113 c3 -5 1 -12 -5
-16 -5 -3 -10 1 -10 9 0 18 6 21 15 7z m1266 -8 c13 -16 12 -17 -3 -4 -17 13
-22 21 -14 21 2 0 10 -8 17 -17z m-2174 -105 c-2 -24 -4 -7 -4 37 0 44 2 63 4
43 2 -21 2 -57 0 -80z m2207 63 c9 -8 14 -16 11 -19 -2 -3 5 -14 18 -25 18
-16 18 -19 4 -14 -10 4 -23 7 -28 7 -6 0 -8 4 -4 9 3 6 0 13 -7 18 -7 4 -19
16 -26 25 -11 14 -11 16 1 14 8 -1 22 -8 31 -15z m-1307 -13 c-3 -8 -6 -5 -6
6 -1 11 2 17 5 13 3 -3 4 -12 1 -19z m-837 -53 l0 -65 -29 0 c-25 0 -28 3 -24
23 10 48 12 50 28 37 13 -11 15 -7 15 29 0 22 2 41 5 41 3 0 5 -29 5 -65z
m2113 28 c-7 -2 -21 -2 -30 0 -10 3 -4 5 12 5 17 0 24 -2 18 -5z m790 -141
c20 -13 37 -27 37 -31 0 -5 -11 -57 -24 -118 -28 -124 -53 -175 -96 -193 -33
-14 -41 -40 -12 -40 32 0 81 39 103 81 24 48 72 227 63 240 -7 13 -3 12 41
-11 22 -11 44 -20 51 -20 16 0 25 -273 13 -400 -6 -58 -9 -195 -7 -306 l3
-201 -35 11 c-19 6 -39 15 -43 21 -5 6 -7 3 -3 -7 3 -10 1 -18 -4 -18 -5 0 -7
-6 -5 -12 3 -7 -2 -58 -9 -113 -8 -55 -14 -94 -15 -87 -1 10 -6 10 -22 1 -12
-6 -30 -9 -40 -6 -10 3 -17 2 -14 -3 3 -4 -2 -11 -11 -14 -10 -4 -13 -2 -8 7
5 7 0 6 -10 -3 -11 -8 -14 -16 -7 -18 6 -2 11 -10 11 -18 0 -8 10 -14 24 -14
13 0 29 -7 36 -15 7 -8 18 -15 24 -15 6 0 4 5 -4 10 -8 5 -10 10 -4 10 6 0 21
-12 35 -27 19 -22 20 -24 2 -10 -17 15 -23 16 -29 5 -4 -7 -4 -10 1 -6 4 4 15
2 23 -4 8 -7 22 -13 31 -13 10 0 16 -9 16 -24 0 -14 10 -29 25 -39 l25 -14
-25 21 c-14 11 -20 21 -13 21 6 0 15 -5 18 -10 4 -6 10 -8 15 -5 5 3 11 1 14
-3 3 -5 -8 -22 -24 -37 -17 -16 -30 -25 -30 -21 0 5 -7 3 -15 -4 -9 -7 -14
-19 -11 -27 3 -7 1 -13 -5 -13 -6 0 -8 -4 -5 -9 4 -5 -1 -8 -10 -7 -8 1 -20 9
-25 17 -5 9 -9 10 -9 2 0 -6 5 -15 10 -18 6 -4 8 -16 4 -27 -4 -14 -3 -18 6
-13 7 4 5 -5 -4 -24 -12 -22 -21 -29 -34 -24 -15 6 -16 5 -2 -12 12 -15 12
-17 1 -10 -11 6 -13 4 -8 -8 3 -9 2 -19 -4 -22 -5 -4 -8 -1 -7 7 2 7 -4 12
-14 10 -9 -1 -19 6 -23 18 -4 11 -11 17 -17 14 -7 -5 -7 -1 -1 11 11 19 -4 60
-29 77 -10 7 -8 8 5 4 19 -6 24 10 5 17 -7 2 -10 8 -6 12 4 4 16 2 25 -6 16
-12 16 -11 -1 8 -10 12 -21 21 -25 21 -3 -1 -16 2 -29 6 -18 6 -21 13 -16 29
6 22 6 22 -9 2 -15 -20 -16 -19 -37 8 -12 15 -27 24 -33 20 -6 -4 -1 7 11 24
27 38 43 79 34 87 -3 4 -8 19 -9 34 -2 15 -4 32 -5 39 -1 7 -6 11 -12 10 -6
-1 -10 6 -10 16 2 15 -1 16 -15 5 -14 -11 -14 -11 -4 3 7 9 10 18 8 21 -3 3 6
3 19 1 16 -3 45 5 76 21 27 14 50 23 50 20 0 -4 7 -1 15 6 8 6 14 15 13 18 -1
4 4 17 11 30 12 23 13 23 34 5 15 -12 18 -13 9 -2 -6 9 -8 20 -4 24 4 5 1 5
-5 1 -16 -9 -16 -1 -1 24 14 23 -1 57 -22 52 -7 -1 -18 2 -24 7 -9 8 -13 7
-13 -4 0 -8 4 -12 9 -9 5 4 -16 -26 -47 -64 -62 -78 -85 -94 -81 -58 2 13 6
28 10 34 9 15 26 16 26 1 0 -5 -4 -8 -9 -5 -5 3 -11 -1 -15 -9 -11 -30 13 -23
40 12 17 23 22 34 12 31 -10 -4 -20 2 -29 18 -8 16 -15 20 -20 13 -4 -7 -6 0
-6 15 2 22 4 24 13 11 6 -8 17 -15 25 -16 10 0 11 -2 1 -6 -6 -2 -9 -9 -6 -14
7 -13 34 8 34 27 0 7 -16 21 -35 30 -20 9 -40 25 -46 35 -11 22 -9 22 26 9 20
-7 34 -6 56 5 16 9 27 20 24 24 -2 5 3 8 12 7 9 0 18 5 21 13 3 9 0 11 -9 7
-8 -4 -6 -1 5 8 17 14 13 16 -54 37 -60 18 -71 24 -67 40 6 24 -11 25 -30 2
-8 -10 -12 -13 -10 -8 3 6 -11 21 -30 34 -19 12 -32 17 -27 10 5 -9 2 -10 -11
-5 -11 4 -22 2 -27 -6 -6 -10 -8 -9 -9 5 -3 30 -4 35 -11 42 -4 4 -12 4 -18 0
-9 -6 -9 -10 1 -16 10 -6 10 -9 2 -9 -7 0 -16 7 -21 15 -17 31 -110 30 -98 -1
3 -8 2 -14 -3 -14 -5 0 -11 9 -14 20 -5 18 -29 30 -26 13 3 -20 -2 -24 -15
-14 -12 10 -20 5 -42 -28 -24 -38 -45 -58 -28 -28 17 29 55 77 62 75 14 -3 42
14 36 23 -3 5 -9 7 -14 4 -5 -3 -3 9 4 27 8 18 20 34 27 37 8 2 6 -5 -4 -20
-21 -29 -22 -43 -2 -35 13 4 14 2 5 -14 -9 -16 -8 -18 5 -14 9 4 13 9 11 12
-3 3 -1 11 6 19 9 11 8 13 -3 11 -8 -2 -14 4 -14 12 0 10 8 14 23 12 12 -2 22
1 22 6 0 5 -8 9 -17 8 -10 0 -18 6 -18 14 0 11 11 15 43 13 23 -1 42 3 42 8 0
6 -4 8 -10 4 -10 -6 -50 29 -50 45 0 6 5 10 10 10 6 0 3 11 -7 24 -10 14 -26
22 -36 20 -11 -2 -17 2 -14 9 5 16 -11 31 -48 45 l-30 12 30 -7 c17 -3 44 -6
61 -5 18 1 37 -5 44 -13 15 -18 66 -20 76 -3 5 7 3 8 -6 3 -9 -5 -11 -4 -6 3
5 8 -5 13 -31 14 -37 1 -37 1 -5 5 18 2 45 -2 60 -10 48 -23 55 -9 17 35 -19
23 -32 45 -28 51 3 6 1 7 -6 3 -9 -6 -9 -11 0 -23 8 -8 -2 -6 -24 7 -31 19
-35 25 -26 41 7 15 6 21 -6 25 -8 3 -15 12 -15 20 0 8 -7 14 -17 14 -15 0 -15
-2 1 -19 10 -11 15 -25 10 -32 -5 -8 -3 -10 6 -4 9 5 11 4 6 -3 -5 -8 -13 -8
-31 0 -27 12 -35 34 -10 24 8 -3 15 -1 15 4 0 6 -5 10 -11 10 -6 0 -9 9 -6 20
3 11 2 18 -3 15 -4 -3 -10 2 -14 10 -3 8 -1 17 4 20 5 3 1 19 -8 35 -15 27
-15 32 -2 40 8 5 12 10 7 10 -4 0 -1 15 7 34 8 19 13 36 11 38 -2 2 15 4 36 5
22 2 50 9 61 18 17 11 25 12 37 2 12 -10 13 -9 7 3 -4 9 -1 8 7 -2 15 -19 33
-25 22 -9 -3 5 -1 12 4 15 11 7 133 -123 126 -134 -2 -3 2 -7 10 -7 19 0 19
-10 -10 132 -14 66 -25 121 -25 123 0 2 30 -23 68 -55 37 -32 84 -69 105 -81z
m-611 76 c-13 -13 -35 -1 -26 14 5 8 1 9 -10 5 -11 -5 -15 -3 -10 5 5 7 2 9
-8 6 -8 -4 -15 0 -15 7 0 10 10 9 40 -6 27 -14 36 -24 29 -31z m209 25 c11
-15 11 -16 -1 -6 -10 9 -17 10 -27 2 -9 -8 -13 -8 -13 -1 0 6 6 13 13 15 6 3
13 6 13 6 1 1 8 -7 15 -16z m-1504 -35 c-3 -8 -6 -5 -6 6 -1 11 2 17 5 13 3
-3 4 -12 1 -19z m1349 -23 c2 -11 -2 -12 -17 -2 -13 8 -15 13 -6 19 13 8 20 3
23 -17z m193 -21 c3 -16 1 -16 -13 -5 -8 7 -21 11 -28 8 -8 -3 -5 -6 7 -7 17
-2 16 -3 -5 -9 -30 -9 -41 -5 -34 14 11 28 67 28 73 -1z m-2382 -6 c-3 -8 -6
-5 -6 6 -1 11 2 17 5 13 3 -3 4 -12 1 -19z m2300 16 c-3 -3 -12 -4 -19 -1 -8
3 -5 6 6 6 11 1 17 -2 13 -5z m-112 -51 c14 -11 15 -14 3 -10 -9 3 -19 3 -22
-1 -10 -10 -37 -11 -30 -1 3 5 13 9 22 10 14 0 13 2 -3 9 -13 6 -15 9 -5 9 8
0 24 -7 35 -16z m-2170 -11 c-3 -3 -11 0 -18 7 -9 10 -8 11 6 5 10 -3 15 -9
12 -12z m2053 11 c-16 -2 -40 -2 -55 0 -16 2 -3 4 27 4 30 0 43 -2 28 -4z
m1117 -372 c0 -171 2 -405 5 -520 3 -116 3 -211 2 -211 -2 0 -18 10 -35 22
-17 13 -54 30 -82 40 -38 13 -52 23 -59 45 -5 15 -11 220 -13 454 l-5 427 66
4 c47 3 73 10 93 25 16 12 28 22 28 22 0 1 0 -138 0 -308z m-2664 259 l509 0
0 -30 c0 -22 -5 -30 -17 -29 -11 0 -13 3 -5 6 6 2 12 13 12 24 0 17 -7 19 -87
17 -83 -2 -84 -2 -20 -5 79 -5 90 -22 15 -25 -196 -6 -618 -2 -618 7 0 6 -4 5
-8 -2 -5 -8 -73 -14 -215 -19 l-207 -7 0 -123 0 -124 -25 0 -26 0 3 152 3 153
30 7 c17 4 57 5 89 2 32 -2 288 -4 567 -4z m442 -57 c-13 -2 -35 -2 -50 0 -16
2 -5 4 22 4 28 0 40 -2 28 -4z m1210 -7 c2 3 7 -2 10 -10 5 -13 1 -13 -27 -1
-29 12 -36 12 -64 -5 -18 -11 -32 -18 -32 -15 0 3 -1 8 -2 12 -2 3 4 7 14 9 9
1 24 6 34 12 11 6 27 7 40 2 12 -5 24 -7 27 -4z m103 -18 c1 -11 -4 -14 -17
-11 -20 6 -24 15 -12 27 10 10 26 2 29 -16z m-56 -2 c-1 -5 4 -13 12 -17 7 -5
9 -9 3 -9 -5 0 -17 5 -25 10 -13 9 -13 10 0 10 13 0 13 1 0 11 -10 7 -11 9 -2
7 8 -2 13 -7 12 -12z m-347 -33 c-24 -2 -62 -2 -85 0 -24 2 -5 4 42 4 47 0 66
-2 43 -4z m-365 -10 c-76 -2 -200 -2 -275 0 -76 1 -14 3 137 3 151 0 213 -2
138 -3z m195 -10 c-7 -2 -19 -2 -25 0 -7 3 -2 5 12 5 14 0 19 -2 13 -5z m-146
-9 c-3 -3 -12 -4 -19 -1 -8 3 -5 6 6 6 11 1 17 -2 13 -5z m498 -34 c10 -11 16
-20 13 -20 -3 0 -13 9 -23 20 -10 11 -16 20 -13 20 3 0 13 -9 23 -20z m-158 4
c-3 -3 -12 -4 -19 -1 -8 3 -5 6 6 6 11 1 17 -2 13 -5z m-104 -21 c-13 -2 -35
-2 -50 0 -16 2 -5 4 22 4 28 0 40 -2 28 -4z m-245 -10 c-10 -2 -26 -2 -35 0
-10 3 -2 5 17 5 19 0 27 -2 18 -5z m129 1 c-3 -3 -12 -4 -19 -1 -8 3 -5 6 6 6
11 1 17 -2 13 -5z m-369 -81 c-60 -2 -156 -2 -215 0 -60 1 -11 3 107 3 118 0
167 -2 108 -3z m821 -83 c0 -10 -3 -8 -9 5 -12 27 -12 43 0 25 5 -8 9 -22 9
-30z m-2170 -125 c3 -87 -3 -103 -34 -98 -21 5 -24 11 -27 52 l-3 46 -45 3
c-25 2 -64 1 -87 -3 l-43 -6 0 -85 c0 -65 -5 -93 -20 -121 l-19 -37 -3 125 -3
124 -67 -3 -68 -3 0 35 0 36 208 0 209 0 2 -65z m2127 43 c4 -7 3 -8 -4 -4 -7
4 -12 2 -12 -5 0 -7 -3 -10 -6 -6 -6 5 3 27 11 27 2 0 7 -5 11 -12z m145 -19
c-14 -5 -30 -13 -36 -17 -6 -4 -2 1 8 11 11 9 27 17 36 16 10 0 7 -4 -8 -10z
m-185 -37 c-17 -16 -18 -16 -5 5 7 12 15 20 18 17 3 -2 -3 -12 -13 -22z m102
-47 c-6 -14 -13 -23 -15 -21 -5 5 15 46 22 46 3 0 -1 -11 -7 -25z m257 -55
c-4 -6 -2 -17 4 -24 8 -9 7 -13 -3 -13 -7 0 -12 9 -11 21 3 25 3 26 11 26 3 0
2 -5 -1 -10z m-2375 -45 c0 -5 3 -27 6 -47 6 -37 6 -38 -25 -38 -31 0 -31 1
-31 50 0 47 1 50 25 48 14 -1 25 -7 25 -13z m2127 -7 c-3 -8 -6 -5 -6 6 -1 11
2 17 5 13 3 -3 4 -12 1 -19z m46 5 c-7 -2 -19 -2 -25 0 -7 3 -2 5 12 5 14 0
19 -2 13 -5z m-1265 -30 c-60 -2 -156 -2 -215 0 -60 1 -11 3 107 3 118 0 167
-2 108 -3z m510 0 c-53 -2 -143 -2 -200 0 -57 1 -13 3 97 3 110 0 156 -2 103
-3z m1026 -12 c14 -15 15 -21 4 -27 -7 -4 -10 -3 -5 1 4 5 0 17 -10 27 -9 10
-14 18 -11 18 3 0 13 -9 22 -19z m-841 2 c-13 -2 -35 -2 -50 0 -16 2 -5 4 22
4 28 0 40 -2 28 -4z m72 -2 c3 -5 0 -13 -6 -17 -7 -4 -9 -3 -5 4 3 6 -2 13
-11 15 -16 4 -16 5 -1 6 9 0 19 -3 23 -8z m-1004 -9 c-11 -4 -11 -6 0 -13 23
-14 -6 -10 -36 5 l-27 14 39 0 c21 0 32 -3 24 -6z m96 1 c-15 -2 -25 -7 -23
-11 2 -4 -10 -8 -27 -8 -18 -1 -24 1 -14 3 9 2 17 8 17 12 0 4 17 7 38 8 26 0
29 -1 9 -4z m1250 -19 c-3 -3 -12 -4 -19 -1 -8 3 -5 6 6 6 11 1 17 -2 13 -5z
m313 -25 c15 -28 5 -23 -15 7 -9 15 -12 23 -6 20 6 -4 16 -16 21 -27z m189 5
c14 -12 -19 -1 -35 12 -18 14 -18 14 6 3 14 -6 27 -13 29 -15z m-562 10 c-3
-3 -12 -4 -19 -1 -8 3 -5 6 6 6 11 1 17 -2 13 -5z m-2518 -41 c21 -45 -14 -92
-59 -78 -39 13 -37 89 3 104 29 11 42 5 56 -26z m1259 30 c-10 -2 -28 -2 -40
0 -13 2 -5 4 17 4 22 1 32 -1 23 -4z m234 0 c-40 -2 -103 -2 -140 0 -37 2 -4
3 73 3 77 0 107 -2 67 -3z m1494 -19 c2 -12 -1 -13 -12 -3 -7 6 -11 16 -8 21
7 11 17 3 20 -18z m-2488 -18 c2 -29 -12 -34 -123 -41 -54 -4 -74 -2 -60 4 11
5 14 10 7 10 -7 1 -22 -4 -33 -9 -10 -6 -19 -7 -20 -3 0 4 -2 17 -4 27 -2 11
-2 23 1 28 3 4 56 8 117 8 112 0 113 0 115 -24z m80 -8 c3 -26 1 -28 -32 -28
-33 0 -36 2 -36 31 0 28 2 30 33 27 27 -2 33 -8 35 -30z m-424 -28 c10 -13 9
-13 -6 -1 -10 7 -18 21 -17 30 0 13 1 14 6 1 3 -8 11 -22 17 -30z m46 26 c0
-2 -7 -7 -16 -10 -8 -3 -12 -2 -9 4 6 10 25 14 25 6z m2751 -43 c13 -16 12
-17 -3 -4 -17 13 -22 21 -14 21 2 0 10 -8 17 -17z m44 -63 c3 -5 1 -10 -4 -10
-6 0 -11 5 -11 10 0 6 2 10 4 10 3 0 8 -4 11 -10z m-48 -6 c-3 -3 -12 -4 -19
-1 -8 3 -5 6 6 6 11 1 17 -2 13 -5z m-913 -10 c12 -5 16 -21 16 -65 l0 -59
-100 0 -100 0 0 30 0 30 -250 0 -250 0 0 -166 0 -165 -37 3 -38 3 4 162 4 162
-144 3 -144 3 -3 27 -3 28 443 3 c244 1 475 3 515 5 39 1 78 -1 87 -4z m996
-4 c0 -5 -5 -10 -11 -10 -5 0 -7 5 -4 10 3 6 8 10 11 10 2 0 4 -4 4 -10z
m-2148 -25 c3 -14 1 -25 -3 -25 -5 0 -9 11 -9 25 0 14 2 25 4 25 2 0 6 -11 8
-25z m35 3 c-3 -8 -6 -5 -6 6 -1 11 2 17 5 13 3 -3 4 -12 1 -19z m2152 -5 c10
8 13 8 8 0 -4 -6 -1 -14 5 -16 7 -3 0 -6 -15 -6 -26 -1 -28 -4 -23 -32 2 -17
2 -28 -2 -24 -4 4 -7 24 -8 46 0 26 3 36 10 29 6 -6 15 -5 25 3z m-171 -20
c-10 -2 -26 -2 -35 0 -10 3 -2 5 17 5 19 0 27 -2 18 -5z m62 -8 c0 -12 -12
-15 -57 -13 l-58 2 53 3 c28 2 52 8 52 14 0 5 2 9 5 9 3 0 5 -7 5 -15z m-192
-12 c-10 -2 -26 -2 -35 0 -10 3 -2 5 17 5 19 0 27 -2 18 -5z m-2598 -27 c0 -2
-7 -9 -15 -16 -13 -11 -14 -10 -9 4 5 14 24 23 24 12z m2380 -29 c0 -2 -10
-12 -22 -23 l-23 -19 19 23 c18 21 26 27 26 19z m499 -22 c13 7 41 -18 45 -42
l5 -22 -40 21 c-21 11 -46 18 -54 14 -8 -3 -17 0 -21 7 -4 7 -4 9 1 5 12 -11
45 10 46 30 1 16 2 15 6 -1 2 -9 8 -15 12 -12z m-2885 0 c3 -8 1 -15 -4 -15
-6 0 -10 7 -10 15 0 8 2 15 4 15 2 0 6 -7 10 -15z m957 3 c58 0 111 2 117 5 9
6 22 -13 22 -34 0 -5 -48 -8 -107 -7 l-108 2 75 6 c62 5 51 6 -60 7 -98 0
-119 -2 -75 -7 33 -4 -88 -6 -270 -6 l-330 1 -3 24 -4 24 319 -7 c175 -4 366
-7 424 -8z m1566 -12 c0 -8 -5 -14 -11 -13 -6 1 -10 -3 -9 -10 1 -6 -4 -16
-12 -23 -21 -17 -13 14 10 40 22 24 22 24 22 6z m1403 -19 c0 -2 -12 -14 -27
-28 l-28 -24 24 28 c23 25 31 32 31 24z m-1101 -33 c-6 -7 -17 -10 -25 -7 -8
3 -14 1 -12 -4 2 -5 -13 -23 -32 -39 -19 -16 -30 -22 -25 -14 5 8 10 18 10 23
0 4 3 7 7 7 4 0 18 11 31 24 24 24 66 33 46 10z m-131 -34 c-12 -35 -23 -41
-12 -7 4 12 7 27 7 34 0 7 4 10 8 7 4 -2 3 -18 -3 -34z m-28 23 c-8 -3 -22
-11 -30 -17 -13 -10 -13 -9 -1 7 7 9 21 17 30 16 13 0 14 -1 1 -6z m-213 -39
c-3 -3 -12 -4 -19 -1 -8 3 -5 6 6 6 11 1 17 -2 13 -5z m208 -54 c-9 -16 -18
-30 -21 -30 -2 0 2 14 11 30 9 17 18 30 21 30 2 0 -2 -13 -11 -30z m65 16 c0
-2 -8 -10 -17 -17 -16 -13 -17 -12 -4 4 13 16 21 21 21 13z m822 -10 c-3 -5 2
-7 10 -3 9 3 25 -1 37 -10 18 -12 20 -17 9 -26 -7 -7 -11 -11 -9 -10 2 2 11
-3 19 -10 13 -10 14 -9 8 3 -4 8 5 -1 20 -20 16 -19 48 -56 71 -81 24 -25 43
-50 43 -55 -1 -5 -12 5 -26 21 -18 20 -22 23 -15 8 6 -12 16 -25 21 -28 6 -4
8 -10 5 -14 -2 -5 4 -16 15 -26 11 -10 20 -28 20 -39 0 -17 -2 -18 -10 -6 -8
13 -10 13 -10 -1 0 -9 8 -25 18 -36 9 -10 14 -14 10 -9 -11 15 -10 38 2 31 6
-4 7 1 3 11 -5 13 -3 15 8 9 8 -5 6 0 -4 12 -10 12 -15 23 -10 25 4 3 2 3 -5
1 -8 -1 -10 2 -6 9 4 7 3 8 -4 4 -8 -5 -10 -2 -6 8 5 14 8 14 21 1 26 -26 55
-37 83 -31 24 4 30 1 40 -24 7 -16 11 -32 10 -35 -1 -4 6 -12 16 -19 9 -7 14
-18 10 -24 -3 -6 -1 -14 5 -18 8 -4 9 -3 5 4 -4 7 -5 12 -2 12 2 0 14 -16 27
-36 20 -33 24 -35 35 -20 7 10 14 12 16 6 2 -6 2 27 -1 72 -2 46 -10 95 -17
110 -13 25 -13 27 3 21 16 -6 16 -5 4 10 -7 9 -11 17 -7 17 3 0 8 0 11 0 3 0
5 -3 6 -7 3 -22 21 -41 36 -38 10 2 22 4 26 4 5 1 5 6 1 13 -4 6 -3 8 4 4 6
-3 9 -15 7 -25 -2 -10 3 -18 10 -18 8 0 12 5 9 11 -3 6 9 -5 25 -24 17 -19 29
-40 26 -47 -2 -7 0 -13 5 -13 6 0 9 -26 9 -57 -1 -52 -2 -54 -9 -23 -4 19 -8
29 -10 23 -5 -30 -3 -59 5 -73 7 -13 6 -13 -7 -2 -9 8 -14 21 -11 30 4 13 3
14 -5 4 -7 -11 -11 -8 -16 13 -7 26 -8 25 -50 -33 -24 -32 -71 -83 -104 -112
-34 -29 -58 -58 -55 -63 3 -6 1 -7 -5 -4 -5 4 -9 18 -7 32 1 14 -2 28 -6 31
-5 3 -9 17 -9 32 0 22 -5 27 -24 27 -13 0 -22 -3 -20 -7 5 -8 -36 -23 -55 -19
-7 1 -10 -2 -7 -8 4 -5 2 -12 -3 -15 -10 -7 -9 13 1 29 4 6 3 17 -3 25 -5 8
-9 11 -9 7 0 -5 -5 -5 -10 -2 -8 5 -8 11 -1 19 8 9 7 13 -3 13 -8 0 -13 -8
-11 -19 3 -15 -2 -18 -25 -16 -16 1 -27 5 -24 9 2 4 -4 13 -13 20 -15 12 -16
12 -10 -3 4 -13 1 -16 -14 -13 -10 2 -19 -2 -19 -8 0 -8 -4 -7 -9 2 -8 12 -13
12 -36 -3 -14 -9 -36 -15 -48 -13 -18 3 -17 5 6 6 16 0 26 5 22 11 -6 9 7 14
27 11 4 0 5 5 2 12 -5 13 -34 19 -34 7 0 -3 -9 -6 -20 -6 -16 0 -17 3 -7 13
14 14 70 26 62 13 -3 -5 -1 -11 4 -14 24 -15 19 17 -6 41 -24 24 -28 26 -31
11 -2 -10 -12 -18 -23 -18 -12 0 -17 -5 -14 -10 4 -6 2 -17 -4 -24 -7 -8 -11
-18 -10 -22 6 -37 -27 -47 -56 -18 -14 15 -14 18 -1 33 14 16 12 17 -22 13
-29 -3 -51 -18 -107 -71 -38 -36 -62 -57 -52 -45 9 11 14 24 10 29 -5 4 -3 5
3 2 15 -8 99 79 85 87 -6 4 -11 13 -11 19 0 8 3 7 9 -2 7 -11 10 -9 16 8 4 15
10 19 18 13 19 -15 46 -11 40 6 -5 11 -7 11 -14 0 -6 -10 -11 -10 -20 -1 -8 8
-18 9 -29 3 -10 -5 -22 -5 -31 2 -11 8 -11 9 3 4 10 -3 20 -1 23 4 4 6 -4 10
-17 11 -13 0 -17 3 -10 6 7 3 25 1 40 -5 32 -11 52 -6 52 14 0 9 -12 14 -32
15 -18 1 0 5 40 9 40 5 79 13 87 20 15 12 59 4 51 -9 -3 -4 2 -8 11 -8 13 0
11 4 -6 18 -21 17 -21 18 -2 24 23 7 64 -11 56 -24 -2 -5 1 -14 9 -20 10 -9
15 -8 20 4 3 8 1 15 -5 15 -6 0 -8 4 -5 9 4 5 0 12 -6 14 -8 4 -9 6 -2 6 6 1
17 -5 23 -13 9 -11 6 -26 -16 -68 -15 -29 -32 -56 -37 -59 -5 -4 2 -10 15 -14
13 -4 32 -14 42 -23 19 -17 23 -3 5 18 -11 12 -10 12 5 0 17 -12 18 -12 15 5
-2 16 3 20 24 19 15 -1 25 3 22 8 -3 4 -11 5 -17 1 -9 -5 -9 -3 -1 8 18 24 24
48 12 55 -7 5 -8 2 -4 -7 4 -8 -6 1 -24 19 -17 19 -29 40 -26 48 3 7 0 17 -7
21 -15 10 -87 12 -82 2 3 -4 -8 -12 -23 -18 -22 -9 -44 -8 -100 4 -68 14 -112
30 -112 40 0 2 21 20 46 40 26 19 43 35 39 35 -4 0 -2 6 4 13 6 8 8 17 4 20
-3 4 1 7 10 7 10 0 19 0 22 0 3 0 13 8 24 19 10 10 25 21 32 24 11 4 12 7 2
18 -10 10 -16 10 -25 1 -21 -21 -128 -14 -177 12 l-45 23 30 6 c16 3 38 7 49
9 11 2 23 8 28 15 9 14 128 13 119 -1z m669 -6 c20 -6 43 -18 50 -28 13 -16
13 -16 -6 -2 -19 14 -19 14 -6 -2 7 -10 17 -15 23 -12 11 7 40 -15 33 -26 -3
-5 0 -12 6 -16 8 -4 9 -3 5 4 -14 24 8 11 59 -33 90 -77 112 -153 68 -240 -23
-47 -85 -135 -95 -135 -4 0 -7 -3 -6 -8 5 -14 -35 -92 -43 -86 -5 3 -6 -1 -3
-9 3 -8 1 -18 -4 -21 -18 -11 -14 176 4 213 15 30 15 37 -1 89 -9 32 -18 65
-18 74 -1 9 -5 14 -9 12 -4 -3 -9 0 -9 5 -1 6 -2 15 -3 20 0 5 -5 13 -10 18
-5 5 -6 2 -2 -7 7 -13 6 -13 -6 0 -7 8 -29 28 -48 44 -19 16 -35 34 -36 40 -4
38 -6 41 -14 21 -7 -17 -9 -16 -9 10 l0 30 18 -22 c25 -30 33 -29 19 2 -6 14
-18 25 -27 25 -14 0 -14 2 -1 10 10 6 11 10 3 10 -7 0 -13 7 -13 15 0 18 29
19 81 5z m-1319 -62 c-7 -7 -12 -8 -12 -2 0 6 3 14 7 17 3 4 9 5 12 2 2 -3 -1
-11 -7 -17z m-257 -40 c5 4 5 1 1 -6 -6 -10 -11 -10 -22 -1 -8 6 -14 14 -14
16 0 3 6 0 13 -6 8 -6 18 -7 22 -3z m347 -2 c-3 -5 2 -7 11 -3 14 5 15 3 4
-13 -15 -25 -20 -25 -53 3 l-27 23 36 0 c19 0 33 -5 29 -10z m1018 -60 c0 -9
-30 -14 -35 -6 -4 6 3 10 14 10 12 0 21 -2 21 -4z m-1002 -41 c0 -14 -5 -28
-9 -31 -5 -3 -7 -9 -4 -14 3 -5 -3 -14 -14 -20 -14 -7 -22 -7 -26 0 -4 6 -3
10 2 9 18 -3 36 1 30 8 -4 3 -2 12 3 19 14 16 9 37 -10 46 -11 5 -10 7 6 7 16
1 22 -5 22 -24z m46 6 c6 -10 -22 -37 -29 -29 -8 7 5 38 15 38 5 0 11 -4 14
-9z m193 -18 c-4 -3 -1 -13 6 -22 10 -14 10 -14 -4 -4 -20 16 -33 5 -17 -14 6
-8 7 -13 2 -12 -5 1 -12 0 -16 -1 -5 -1 -14 -3 -20 -4 -7 -1 -12 -8 -10 -15 1
-7 -2 -9 -9 -6 -7 5 3 21 27 46 21 22 40 39 43 39 2 0 1 -3 -2 -7z m127 -24
c-3 -5 1 -9 8 -9 7 0 1 -7 -12 -17 -14 -9 -38 -28 -55 -42 -18 -16 -23 -18
-12 -5 13 16 14 23 4 34 -10 12 -9 12 3 3 12 -9 21 -7 40 7 14 11 20 20 14 20
-6 0 -11 6 -11 14 0 8 6 12 14 9 7 -3 10 -9 7 -14z m-574 7 c0 -2 -8 -10 -17
-17 -16 -13 -17 -12 -4 4 13 16 21 21 21 13z m237 -12 c-3 -3 -12 -4 -19 -1
-8 3 -5 6 6 6 11 1 17 -2 13 -5z m-2307 -74 c0 -47 -2 -50 -25 -50 -23 0 -25
3 -25 50 0 47 2 50 25 50 23 0 25 -3 25 -50z m210 -5 l0 -45 -55 0 -55 0 0 45
0 45 55 0 55 0 0 -45z m1980 21 c0 -2 -8 -10 -17 -17 -16 -13 -17 -12 -4 4 13
16 21 21 21 13z m167 -28 c-3 -7 -5 -2 -5 12 0 14 2 19 5 13 2 -7 2 -19 0 -25z
m296 -15 c-7 -2 -19 -2 -25 0 -7 3 -2 5 12 5 14 0 19 -2 13 -5z m-306 -25 c-3
-8 -6 -5 -6 6 -1 11 2 17 5 13 3 -3 4 -12 1 -19z m244 11 c-14 -5 -28 -6 -32
-2 -4 4 6 9 24 10 30 1 31 1 8 -8z m834 -99 c3 -5 0 -7 -8 -4 -8 3 -18 -6 -25
-21 -15 -33 -15 -36 3 -29 8 4 15 1 15 -5 0 -6 7 -11 15 -11 10 0 15 -9 14
-27 -1 -23 -3 -24 -6 -6 -6 29 -30 37 -38 12 -4 -10 -11 -17 -16 -13 -6 4 -6
11 1 19 7 8 7 16 2 19 -12 7 -24 -22 -15 -36 3 -6 2 -9 -3 -5 -5 3 -21 -17
-36 -43 -17 -30 -24 -52 -18 -55 6 -4 10 -3 8 2 -5 22 41 91 55 81 1 -1 13 4
26 11 13 7 21 8 17 3 -3 -6 -2 -13 4 -17 15 -9 12 -34 -6 -52 -9 -10 -14 -27
-12 -43 3 -17 -1 -27 -9 -28 -7 -1 -20 -3 -28 -4 -8 -1 -13 -4 -10 -6 3 -3 -3
-11 -13 -19 -9 -8 -11 -12 -4 -8 6 3 12 1 12 -4 0 -6 5 -11 11 -11 5 0 8 4 5
8 -3 5 1 9 9 9 10 0 11 -5 5 -17 -14 -26 -37 -31 -55 -14 -8 8 -19 12 -25 9
-6 -3 -13 1 -16 9 -3 9 -10 14 -14 11 -5 -3 -11 -1 -14 4 -10 16 12 23 36 10
18 -9 21 -9 11 1 -14 15 -77 24 -68 10 14 -23 -5 -8 -25 19 -20 30 -20 30 -1
26 12 -2 23 1 27 6 3 5 14 7 24 4 13 -4 24 3 39 24 38 53 94 182 93 213 l-1
31 14 -26 c8 -15 17 -31 20 -37z m22 -47 c-3 -10 -5 -4 -5 12 0 17 2 24 5 18
2 -7 2 -21 0 -30z m-477 7 c8 -5 11 -10 5 -10 -5 0 -17 5 -25 10 -8 5 -10 10
-5 10 6 0 17 -5 25 -10z m62 -47 c-6 -2 -10 -8 -7 -12 2 -5 -8 -19 -23 -32
-25 -22 -25 -22 -8 -1 11 12 16 22 11 22 -4 0 -2 7 5 15 7 8 18 15 24 14 7 0
6 -2 -2 -6z m186 -96 c9 -10 6 -13 -12 -13 -16 0 -22 5 -19 13 3 7 9 13 13 13
4 0 12 -6 18 -13z m-298 -61 c0 -2 -8 -10 -17 -17 -16 -13 -17 -12 -4 4 13 16
21 21 21 13z m-3394 -62 c79 -5 132 -3 153 4 29 10 31 9 31 -11 l0 -22 -405 3
-405 2 0 22 0 21 253 -6 c138 -4 307 -10 373 -13z m844 -10 l0 -24 -195 0
-195 0 0 -35 c0 -27 -4 -35 -18 -35 -28 0 -42 21 -42 62 0 25 6 41 18 48 10 6
94 10 225 9 l207 -2 0 -23z m-1079 -178 c-12 -18 -21 -41 -21 -51 0 -30 -25
-9 -28 24 -4 39 12 61 45 61 l25 0 -21 -34z m1106 -73 c-3 -10 -5 -2 -5 17 0
19 2 27 5 18 2 -10 2 -26 0 -35z m-90 5 c-3 -7 -5 -2 -5 12 0 14 2 19 5 13 2
-7 2 -19 0 -25z m-892 -13 c0 -26 -4 -30 -31 -33 -24 -2 -33 2 -41 21 -15 32
1 49 42 45 26 -3 30 -7 30 -33z m1062 -2 c-3 -10 -5 -4 -5 12 0 17 2 24 5 18
2 -7 2 -21 0 -30z m-363 1 c13 -33 6 -44 -24 -44 -27 0 -30 3 -30 30 0 25 4
30 24 30 13 0 27 -7 30 -16z m-543 -166 c0 -24 2 -53 3 -65 3 -29 -22 -33
-215 -33 l-159 0 0 70 0 70 185 0 185 0 1 -42z m178 5 c-1 -50 -9 -67 -36 -71
-22 -3 -23 0 -23 52 0 56 0 56 30 56 28 0 30 -2 29 -37z m228 -50 c-4 -49 -10
-123 -13 -165 l-7 -77 36 -6 c20 -4 40 -4 45 -1 5 3 12 -8 14 -24 l5 -30 -229
0 -228 0 0 130 0 130 99 0 c70 0 101 4 104 13 3 6 6 -11 6 -40 l1 -51 50 -4
50 -3 0 108 0 107 36 0 37 0 -6 -87z m755 65 c3 -22 7 -23 126 -26 l122 -3 0
-44 0 -45 -223 0 c-123 0 -264 3 -313 6 l-90 7 -17 41 c-9 23 -17 51 -17 64
l0 22 204 0 c205 0 205 0 208 -22z m-1769 -191 c8 -6 7 -7 -3 -4 -9 2 -16 17
-16 38 -2 31 -1 31 3 4 3 -16 10 -34 16 -38z m14 21 c-3 -8 -6 -5 -6 6 -1 11
2 17 5 13 3 -3 4 -12 1 -19z m385 -145 c3 -27 3 -50 2 -52 -7 -8 -137 -13
-188 -7 l-56 7 0 50 0 49 119 0 119 0 4 -47z m64 37 c22 0 24 -4 24 -45 0 -44
0 -45 -34 -45 -31 0 -34 3 -40 38 -9 57 -8 65 10 58 9 -3 27 -6 40 -6z m701
-47 c-3 -10 -5 -4 -5 12 0 17 2 24 5 18 2 -7 2 -21 0 -30z m-592 -3 c7 0 16 5
18 10 3 6 4 5 3 -2 -2 -7 -11 -13 -21 -13 -10 0 -19 6 -21 13 -1 7 0 8 3 2 2
-5 11 -10 18 -10z"/>
<path d="M6910 7836 c0 -2 8 -10 18 -17 15 -13 16 -12 3 4 -13 16 -21 21 -21
13z"/>
<path d="M6655 7250 c3 -5 8 -10 11 -10 2 0 4 5 4 10 0 6 -5 10 -11 10 -5 0
-7 -4 -4 -10z"/>
<path d="M6898 7183 c7 -3 16 -2 19 1 4 3 -2 6 -13 5 -11 0 -14 -3 -6 -6z"/>
<path d="M6997 7179 c7 -7 15 -10 18 -7 3 3 -2 9 -12 12 -14 6 -15 5 -6 -5z"/>
<path d="M7218 7183 c7 -3 16 -2 19 1 4 3 -2 6 -13 5 -11 0 -14 -3 -6 -6z"/>
<path d="M6926 7172 c-3 -5 1 -9 9 -9 8 0 12 4 9 9 -3 4 -7 8 -9 8 -2 0 -6 -4
-9 -8z"/>
<path d="M6680 7136 c14 -7 29 -10 34 -8 11 6 -20 20 -44 21 -8 0 -4 -5 10
-13z"/>
<path d="M6495 6724 c-27 -31 -77 -74 -110 -97 -32 -22 -54 -42 -48 -44 6 -2
37 14 69 35 58 39 105 82 89 82 -5 0 2 11 15 25 12 13 26 22 31 20 4 -3 11 0
15 6 5 8 3 9 -6 4 -10 -6 -12 -4 -7 8 3 10 5 17 4 17 -1 0 -24 -26 -52 -56z"/>
<path d="M6316 6555 c-9 -26 -7 -32 5 -12 6 10 9 21 6 23 -2 3 -7 -2 -11 -11z"/>
<path d="M6389 6763 c-13 -16 -12 -17 4 -4 9 7 17 15 17 17 0 8 -8 3 -21 -13z"/>
<path d="M6581 6824 c-9 -21 -9 -30 0 -38 9 -8 10 -8 5 1 -3 6 -3 19 1 29 6
16 7 16 14 -2 5 -13 8 -14 8 -4 0 8 -3 21 -7 28 -6 9 -12 5 -21 -14z"/>
<path d="M6560 6645 c-7 -9 -8 -15 -2 -15 5 0 12 7 16 15 3 8 4 15 2 15 -2 0
-9 -7 -16 -15z"/>
<path d="M4323 6224 c9 -11 15 -24 12 -27 -3 -4 -2 -5 2 -2 3 3 15 -2 25 -12
17 -16 17 -17 1 -37 -18 -21 -18 -21 3 -3 17 14 23 15 27 5 3 -7 6 -8 6 -3 1
6 -20 31 -46 55 -26 25 -40 36 -30 24z"/>
<path d="M4258 6083 c7 -3 16 -2 19 1 4 3 -2 6 -13 5 -11 0 -14 -3 -6 -6z"/>
<path d="M4185 5972 c33 -34 61 -62 64 -62 2 0 -6 11 -18 24 -13 14 -20 29
-17 35 4 5 1 13 -5 17 -8 4 -9 3 -5 -4 14 -22 -8 -12 -44 20 -19 18 -8 5 25
-30z"/>
<path d="M4408 6013 c6 -3 9 -10 5 -16 -4 -6 0 -8 10 -4 10 4 17 1 17 -5 0 -6
2 -9 5 -6 11 11 -7 34 -28 35 -12 0 -16 -1 -9 -4z"/>
<path d="M4227 5839 c7 -7 15 -10 18 -7 3 3 -2 9 -12 12 -14 6 -15 5 -6 -5z"/>
<path d="M4229 5819 c-6 -31 -5 -37 7 -35 22 3 25 12 9 26 -8 7 -15 11 -16 9z"/>
<path d="M4195 5750 c-9 -14 8 -40 51 -80 38 -35 38 -35 -4 12 -40 45 -56 78
-30 62 7 -4 8 -3 4 4 -9 15 -13 15 -21 2z"/>
<path d="M4227 5719 c7 -7 15 -10 18 -7 3 3 -2 9 -12 12 -14 6 -15 5 -6 -5z"/>
<path d="M4166 5643 c-3 -4 8 -22 26 -40 33 -34 61 -46 37 -15 -13 15 -12 16
3 3 10 -7 16 -17 13 -21 -3 -4 24 -27 60 -50 35 -23 69 -48 76 -56 6 -8 17
-14 23 -14 6 0 3 5 -7 11 -9 6 -14 15 -11 21 4 6 3 9 -2 5 -10 -6 -44 16 -47
30 -1 4 -8 7 -15 5 -7 -2 -11 1 -10 7 3 8 -124 121 -135 121 -2 0 -7 -3 -11
-7z m144 -110 c0 -7 -39 17 -46 28 -3 6 5 3 20 -6 14 -10 26 -19 26 -22z"/>
<path d="M4546 5217 c3 -10 9 -15 12 -12 3 3 0 11 -7 18 -10 9 -11 8 -5 -6z"/>
<path d="M4440 4965 c13 -14 26 -25 28 -25 3 0 -5 11 -18 25 -13 14 -26 25
-28 25 -3 0 5 -11 18 -25z"/>
<path d="M4596 4907 c3 -10 9 -15 12 -12 3 3 0 11 -7 18 -10 9 -11 8 -5 -6z"/>
<path d="M4520 4792 c6 -13 14 -21 18 -18 3 4 -2 14 -12 24 -18 16 -18 16 -6
-6z"/>
<path d="M5740 5605 c-24 -25 -42 -45 -39 -45 3 0 25 20 49 45 24 25 42 45 39
45 -3 0 -25 -20 -49 -45z"/>
<path d="M4305 5300 c10 -11 20 -20 23 -20 3 0 -3 9 -13 20 -10 11 -20 20 -23
20 -3 0 3 -9 13 -20z"/>
<path d="M4200 4826 c0 -2 8 -10 18 -17 15 -13 16 -12 3 4 -13 16 -21 21 -21
13z"/>
<path d="M4710 4657 c0 -3 7 -13 17 -22 15 -16 15 -17 -7 -13 -13 2 -24 -3
-26 -10 -1 -7 0 -8 2 -3 6 11 33 3 52 -16 8 -7 18 -11 23 -8 8 6 13 -9 10 -28
-1 -5 4 -5 10 -1 9 5 10 2 6 -9 -4 -11 -2 -14 8 -11 12 5 9 13 -11 40 -15 19
-31 31 -37 27 -5 -3 -7 -2 -4 4 4 6 -5 21 -18 33 -14 13 -25 21 -25 17z"/>
<path d="M4585 4621 c-16 -3 -25 -9 -20 -13 10 -6 55 7 55 17 0 3 -1 4 -2 4
-2 -1 -16 -4 -33 -8z"/>
<path d="M4540 4535 c0 -8 2 -15 4 -15 2 0 6 7 10 15 3 8 1 15 -4 15 -6 0 -10
-7 -10 -15z"/>
<path d="M4825 4469 c-4 -6 -5 -12 -2 -15 2 -3 7 2 10 11 7 17 1 20 -8 4z"/>
<path d="M4873 4405 c0 -27 2 -38 4 -22 2 15 2 37 0 50 -2 12 -4 0 -4 -28z"/>
<path d="M4590 4356 c0 -2 7 -6 15 -10 8 -3 15 -1 15 4 0 6 -7 10 -15 10 -8 0
-15 -2 -15 -4z"/>
<path d="M4682 4312 c-10 -7 -8 -13 7 -26 13 -12 21 -14 26 -6 4 6 1 9 -7 8
-7 -2 -12 5 -12 15 1 9 1 17 0 17 0 0 -7 -4 -14 -8z"/>
<path d="M4538 4243 c7 -3 16 -2 19 1 4 3 -2 6 -13 5 -11 0 -14 -3 -6 -6z"/>
<path d="M4686 4153 c-3 -3 -6 -12 -6 -20 0 -15 36 -18 45 -4 7 12 -29 33 -39
24z"/>
<path d="M4605 4140 c3 -5 8 -10 11 -10 2 0 4 5 4 10 0 6 -5 10 -11 10 -5 0
-7 -4 -4 -10z"/>
<path d="M4653 4085 c0 -8 4 -12 9 -9 4 3 8 9 8 15 0 5 -4 9 -8 9 -5 0 -9 -7
-9 -15z"/>
<path d="M4670 4075 c-7 -9 -19 -14 -27 -11 -8 3 -11 1 -8 -4 3 -6 1 -10 -5
-10 -6 0 -9 -4 -5 -9 3 -6 27 -13 53 -16 26 -3 58 -8 72 -11 14 -2 21 -1 15 3
-5 4 -10 17 -10 27 0 11 -6 21 -12 24 -7 2 -13 -1 -13 -7 0 -6 5 -11 10 -11 6
0 10 -4 10 -9 0 -5 -15 -1 -34 8 -18 9 -31 22 -29 29 7 17 -2 15 -17 -3z"/>
<path d="M4771 4055 c-1 -25 17 -45 39 -44 10 0 8 4 -7 11 -12 6 -24 20 -26
32 -4 20 -4 20 -6 1z"/>
<path d="M4848 3997 c12 -7 19 -16 16 -20 -4 -4 -2 -7 4 -7 19 0 14 18 -7 30
-11 5 -23 10 -28 10 -4 -1 2 -6 15 -13z"/>
<path d="M4685 3950 c-3 -5 -1 -10 4 -10 6 0 11 5 11 10 0 6 -2 10 -4 10 -3 0
-8 -4 -11 -10z"/>
<path d="M4866 3913 c-6 -14 -5 -15 5 -6 7 7 10 15 7 18 -3 3 -9 -2 -12 -12z"/>
<path d="M4840 3879 c0 -5 5 -7 10 -4 6 3 10 8 10 11 0 2 -4 4 -10 4 -5 0 -10
-5 -10 -11z"/>
<path d="M4969 3793 c-13 -16 -12 -17 4 -4 9 7 17 15 17 17 0 8 -8 3 -21 -13z"/>
<path d="M5015 3781 c6 -10 2 -12 -16 -7 l-24 6 23 -11 c12 -7 22 -18 22 -24
0 -20 27 -38 36 -24 4 8 3 9 -5 5 -11 -7 -20 7 -25 38 -1 8 -6 19 -11 23 -4 4
-5 2 0 -6z"/>
<path d="M4890 3720 c-12 -8 -13 -11 -2 -22 11 -11 13 -10 10 2 -2 8 3 14 10
12 8 -1 11 2 7 8 -7 12 -6 12 -25 0z"/>
<path d="M4905 3680 c-3 -5 -3 -10 2 -10 4 0 1 -4 -7 -10 -8 -5 -12 -11 -9
-15 3 -3 14 3 23 14 10 11 13 21 7 25 -5 4 -12 2 -16 -4z"/>
<path d="M4930 3350 c-9 -6 -10 -10 -3 -10 6 0 15 5 18 10 8 12 4 12 -15 0z"/>
<path d="M4968 3353 c7 -3 16 -2 19 1 4 3 -2 6 -13 5 -11 0 -14 -3 -6 -6z"/>
<path d="M4807 3291 c-16 -27 -16 -29 9 -52 14 -13 25 -19 23 -14 -1 6 1 18 6
28 5 11 3 23 -4 30 -9 9 -10 7 -5 -8 7 -18 6 -18 -9 -6 -13 11 -15 17 -6 28 7
7 10 15 7 18 -2 2 -12 -8 -21 -24z m18 -32 c11 -17 -1 -21 -15 -4 -8 9 -8 15
-2 15 6 0 14 -5 17 -11z"/>
<path d="M5069 3259 c-6 -31 -5 -37 7 -35 22 3 25 12 9 26 -8 7 -15 11 -16 9z"/>
<path d="M5109 3213 c-13 -16 -12 -17 4 -4 9 7 17 15 17 17 0 8 -8 3 -21 -13z"/>
<path d="M4960 3101 c-6 -12 -5 -22 1 -28 8 -8 7 -13 -2 -18 -8 -5 -10 -4 -5
3 4 7 2 12 -3 12 -25 0 -5 -34 21 -36 11 -1 15 5 13 17 -5 22 30 46 38 26 4
-7 6 -8 6 -1 1 14 -26 37 -45 40 -8 1 -18 -6 -24 -15z m47 -6 c4 -4 2 -5 -4
-1 -7 4 -13 2 -13 -3 0 -6 -7 -11 -15 -11 -8 0 -12 6 -9 14 6 15 28 16 41 1z"/>
<path d="M2638 4493 c12 -2 30 -2 40 0 9 3 -1 5 -23 4 -22 0 -30 -2 -17 -4z"/>
<path d="M4740 3428 c0 -4 4 -8 9 -8 6 0 12 4 15 8 3 5 -1 9 -9 9 -8 0 -15 -4
-15 -9z"/>
<path d="M4775 3421 c-3 -5 -2 -12 3 -15 5 -3 9 1 9 9 0 17 -3 19 -12 6z"/>
<path d="M2158 3423 c7 -3 16 -2 19 1 4 3 -2 6 -13 5 -11 0 -14 -3 -6 -6z"/>
<path d="M2313 3423 c42 -2 112 -2 155 0 42 1 7 3 -78 3 -85 0 -120 -2 -77 -3z"/>
<path d="M5443 3265 c0 -7 6 -11 14 -8 7 3 13 6 13 8 0 2 -6 5 -13 8 -8 3 -14
-1 -14 -8z"/>
<path d="M5358 3223 c6 -2 18 -2 25 0 6 3 1 5 -13 5 -14 0 -19 -2 -12 -5z"/>
<path d="M5515 3190 c10 -11 20 -20 23 -20 3 0 -3 9 -13 20 -10 11 -20 20 -23
20 -3 0 3 -9 13 -20z"/>
<path d="M5321 3087 c-6 -8 -7 -18 -3 -22 4 -5 0 -6 -8 -3 -10 4 -16 -1 -17
-12 -1 -12 8 -20 24 -25 14 -3 27 -4 30 -2 2 3 -8 8 -23 11 -25 7 -25 8 -9 20
10 7 20 21 21 30 3 20 0 20 -15 3z"/>
<path d="M5684 3016 c11 -9 29 -16 40 -15 17 1 16 2 -6 9 -14 4 -32 11 -40 15
-7 3 -4 -1 6 -9z"/>
<path d="M5378 3013 c7 -3 16 -2 19 1 4 3 -2 6 -13 5 -11 0 -14 -3 -6 -6z"/>
<path d="M5609 3008 c-7 -23 -4 -40 8 -55 13 -17 14 -17 5 2 -5 11 -8 28 -7
38 3 13 -2 25 -6 15z"/>
<path d="M5766 2987 c3 -10 9 -15 12 -12 3 3 0 11 -7 18 -10 9 -11 8 -5 -6z"/>
<path d="M5498 2983 c14 -5 16 -39 3 -47 -18 -12 -19 -46 -2 -56 15 -7 21 -4
30 16 6 14 7 23 3 20 -5 -3 -9 1 -9 8 0 9 7 12 16 8 13 -4 12 -1 -3 16 -11 12
-15 22 -10 22 5 0 2 5 -6 10 -8 5 -19 9 -25 9 -5 0 -4 -3 3 -6z"/>
<path d="M5426 2962 c-3 -5 1 -9 9 -9 8 0 12 4 9 9 -3 4 -7 8 -9 8 -2 0 -6 -4
-9 -8z"/>
<path d="M5388 2943 c7 -3 16 -2 19 1 4 3 -2 6 -13 5 -11 0 -14 -3 -6 -6z"/>
<path d="M5343 2926 c0 -8 6 -12 14 -9 7 3 10 9 7 14 -8 14 -21 11 -21 -5z"/>
<path d="M5420 2930 c0 -5 5 -10 11 -10 5 0 7 5 4 10 -3 6 -8 10 -11 10 -2 0
-4 -4 -4 -10z"/>
<path d="M5385 2912 c-15 -33 -15 -44 1 -31 7 6 12 15 9 19 -3 5 0 10 7 12 8
3 9 6 1 11 -6 4 -14 -1 -18 -11z"/>
<path d="M5833 2873 c4 -3 1 -13 -6 -22 -11 -14 -10 -14 5 -2 16 12 16 31 1
31 -4 0 -3 -3 0 -7z"/>
<path d="M5277 2857 c-3 -9 5 -12 30 -9 39 5 39 7 2 16 -18 4 -29 1 -32 -7z"/>
<path d="M5373 2843 c4 -6 0 -18 -8 -27 -17 -17 -5 -29 19 -20 14 5 14 9 4 22
-7 8 -11 17 -10 19 2 3 0 8 -4 11 -4 4 -4 2 -1 -5z"/>
<path d="M5517 2833 c-11 -11 -8 -20 7 -20 8 0 12 6 9 14 -6 15 -7 15 -16 6z"/>
<path d="M5905 2803 l-17 -28 23 22 c12 12 20 25 17 28 -3 3 -13 -7 -23 -22z"/>
<path d="M5595 2810 c-3 -5 -1 -10 4 -10 6 0 11 5 11 10 0 6 -2 10 -4 10 -3 0
-8 -4 -11 -10z"/>
<path d="M5677 2789 c7 -9 10 -19 6 -23 -4 -4 1 -4 10 0 10 3 17 7 15 8 -2 1
-12 8 -23 16 -18 14 -19 13 -8 -1z"/>
<path d="M5840 2758 c6 -8 5 -17 -2 -27 -7 -9 0 -5 15 8 27 24 39 43 14 22 -9
-7 -18 -7 -25 -1 -9 7 -9 7 -2 -2z"/>
<path d="M5799 2703 c-13 -16 -12 -17 4 -4 9 7 17 15 17 17 0 8 -8 3 -21 -13z"/>
<path d="M6042 3255 c6 -14 13 -24 14 -22 6 6 -9 47 -17 47 -5 0 -3 -11 3 -25z"/>
<path d="M6119 3203 c-13 -16 -12 -17 4 -4 16 13 21 21 13 21 -2 0 -10 -8 -17
-17z"/>
<path d="M6070 3182 c0 -7 5 -12 11 -12 5 0 7 -5 4 -10 -4 -6 -12 -7 -18 -3
-7 4 -6 0 2 -10 7 -9 19 -17 25 -16 7 0 6 2 -2 6 -6 2 -9 9 -6 14 4 6 11 6 19
-1 10 -8 15 -8 21 2 4 7 3 10 -1 5 -5 -4 -19 3 -32 15 -13 12 -23 16 -23 10z"/>
<path d="M6172 2780 c0 -19 2 -27 5 -17 2 9 2 25 0 35 -3 9 -5 1 -5 -18z"/>
<path d="M4820 3174 c0 -2 9 -8 20 -14 11 -6 20 -7 20 -2 0 6 -9 12 -20 15
-11 3 -20 3 -20 1z"/>
<path d="M5967 2668 c-3 -10 -1 -21 4 -24 5 -3 7 -9 4 -14 -3 -5 -1 -11 5 -15
5 -3 10 0 11 7 0 7 2 25 3 39 2 29 -20 35 -27 7z"/>
<path d="M6011 2674 c0 -11 3 -14 6 -6 3 7 2 16 -1 19 -3 4 -6 -2 -5 -13z"/>
<path d="M5943 2629 c-2 -23 3 -25 10 -4 4 8 3 16 -1 19 -4 3 -9 -4 -9 -15z"/>
<path d="M5835 2600 c-4 -6 -11 -8 -16 -5 -5 3 -6 -1 -2 -10 4 -12 8 -13 13
-5 4 7 14 16 21 21 9 6 10 9 2 9 -6 0 -15 -5 -18 -10z"/>
<path d="M5963 2595 c0 -8 4 -12 9 -9 5 3 6 10 3 15 -9 13 -12 11 -12 -6z"/>
<path d="M2562 2025 c0 -16 2 -22 5 -12 2 9 2 23 0 30 -3 6 -5 -1 -5 -18z"/>
<path d="M6426 8118 c3 -5 10 -6 15 -3 13 9 11 12 -6 12 -8 0 -12 -4 -9 -9z"/>
<path d="M7030 7645 c13 -14 26 -25 28 -25 3 0 -5 11 -18 25 -13 14 -26 25
-28 25 -3 0 5 -11 18 -25z"/>
<path d="M7106 7632 c-3 -5 1 -9 9 -9 8 0 12 4 9 9 -3 4 -7 8 -9 8 -2 0 -6 -4
-9 -8z"/>
<path d="M7220 7510 c-9 -6 -10 -10 -3 -10 6 0 15 5 18 10 8 12 4 12 -15 0z"/>
<path d="M7049 7488 c15 -21 31 -23 31 -6 0 6 -3 8 -7 5 -3 -4 -13 -1 -22 6
-14 11 -14 10 -2 -5z"/>
<path d="M7044 7378 c-4 -7 -4 -10 1 -6 4 4 14 3 22 -4 11 -8 17 -8 26 2 9 10
9 11 -1 6 -7 -4 -19 -3 -27 4 -10 8 -15 8 -21 -2z"/>
<path d="M7339 7367 c6 -8 7 -18 3 -22 -4 -5 -1 -5 6 -1 10 6 10 11 1 22 -6 8
-14 14 -16 14 -3 0 0 -6 6 -13z"/>
<path d="M6743 7354 c-2 -7 -11 -10 -18 -8 -7 3 -15 1 -18 -3 -10 -16 28 -12
52 6 18 14 20 18 6 18 -9 0 -19 -6 -22 -13z"/>
<path d="M7360 7319 c-13 -9 -13 -10 1 -6 9 3 23 0 30 -6 11 -10 11 -9 0 6 -7
9 -14 17 -15 17 0 0 -8 -5 -16 -11z"/>
<path d="M7450 7216 c0 -2 8 -10 18 -17 15 -13 16 -12 3 4 -13 16 -21 21 -21
13z"/>
<path d="M1360 4677 c-25 -11 -25 -11 8 -15 37 -4 62 3 62 16 0 12 -42 12 -70
-1z"/>
<path d="M8811 4053 c-1 -24 13 -31 25 -11 4 6 3 8 -4 4 -6 -3 -13 2 -15 11
-4 14 -5 13 -6 -4z"/>
<path d="M1274 3746 c-3 -8 -4 -25 -2 -38 2 -17 9 -23 28 -23 22 0 25 4 25 35
0 29 -4 36 -23 38 -13 2 -24 -3 -28 -12z"/>
<path d="M6822 3324 c-56 -30 -96 -54 -90 -55 80 -3 149 -26 263 -88 55 -30
84 -39 138 -44 43 -3 75 -11 86 -21 16 -15 21 -15 47 -1 20 10 59 15 130 15
l101 0 67 -50 c37 -27 76 -52 87 -55 19 -6 19 -7 0 -33 -21 -31 -36 -86 -26
-102 4 -7 21 -2 47 12 l40 23 40 -44 c23 -24 48 -44 57 -46 9 -1 15 -7 14 -13
-4 -17 26 -82 38 -82 6 0 9 -7 6 -14 -4 -10 -1 -13 7 -10 9 3 12 18 8 47 -2
23 -4 55 -5 70 0 20 -2 24 -8 15 -6 -9 -9 -6 -10 12 -10 191 -8 186 -74 215
-31 13 -55 30 -55 39 0 8 -11 28 -25 44 -19 23 -43 35 -107 52 -46 12 -134 42
-197 67 -63 25 -135 48 -160 50 -71 7 -80 12 -56 30 l20 16 -20 -7 c-48 -17
-114 -18 -161 -2 -26 9 -59 16 -73 15 -14 0 -72 -25 -129 -55z"/>
<path d="M1350 3055 l0 -35 436 0 435 0 -3 33 -3 32 -432 3 -433 2 0 -35z"/>
<path d="M7236 3082 c-3 -5 23 -28 57 -51 48 -33 55 -36 30 -13 -17 17 -29 33
-26 35 2 3 -5 8 -18 12 -17 6 -19 9 -8 16 11 6 9 9 -8 9 -12 0 -24 -4 -27 -8z"/>
<path d="M7125 2983 c-33 -7 -81 -11 -106 -9 -45 5 -47 4 -80 -41 -19 -26 -41
-56 -49 -67 -14 -18 -14 -19 4 -13 10 4 24 3 30 -2 7 -6 37 -4 81 6 81 17 126
18 158 2 20 -10 227 -217 227 -227 0 -2 -6 1 -13 7 -8 6 -18 7 -22 3 -5 -4 -5
-2 -2 4 3 6 0 11 -8 11 -8 0 -15 -4 -15 -8 0 -13 56 -39 65 -31 5 4 5 2 2 -4
-12 -20 18 -45 61 -51 48 -6 53 1 17 29 -38 30 -88 143 -110 250 -5 28 -146
159 -168 157 -7 -1 -39 -8 -72 -16z"/>
<path d="M7945 2981 c4 -7 8 -41 10 -76 3 -73 10 -91 30 -75 17 14 26 48 14
55 -5 3 -3 15 4 25 14 24 -1 56 -26 54 -9 -1 -15 3 -14 8 1 6 -4 13 -12 16 -9
3 -11 0 -6 -7z"/>
<path d="M1098 2818 c4 -16 2 -19 -9 -13 -11 7 -12 6 -2 -7 7 -8 9 -19 5 -23
-4 -5 -1 -5 6 -1 14 8 16 52 3 60 -5 4 -7 -4 -3 -16z"/>
<path d="M7990 2824 c-11 -12 -11 -18 1 -29 12 -12 14 -10 16 15 2 34 0 36
-17 14z"/>
<path d="M7471 2777 c4 -24 22 -78 39 -121 16 -42 27 -82 24 -88 -4 -7 11 -8
47 -4 75 8 74 7 74 31 0 17 -5 21 -25 18 -22 -3 -23 -2 -5 6 18 9 17 10 -8 10
-16 1 -26 -3 -22 -8 3 -5 1 -12 -5 -16 -5 -3 -10 -1 -10 4 0 6 -7 11 -16 11
-13 0 -14 3 -5 13 8 11 6 18 -9 32 -19 17 -20 17 -20 1 0 -9 4 -15 9 -11 5 3
12 1 15 -4 3 -5 0 -11 -8 -14 -18 -7 -37 34 -25 56 13 23 38 10 56 -27 l14
-31 -4 28 c-3 20 1 31 16 38 12 7 17 7 13 1 -7 -11 91 -48 101 -38 4 3 -1 6
-11 6 -9 0 -14 5 -11 10 4 6 -25 25 -67 44 -40 19 -89 45 -108 58 -60 41 -58
41 -49 -5z m174 -77 c3 -5 1 -10 -4 -10 -6 0 -11 5 -11 10 0 6 2 10 4 10 3 0
8 -4 11 -10z"/>
<path d="M6430 2401 c0 -5 2 -16 5 -24 8 -20 79 -7 83 16 3 14 -4 17 -42 17
-25 0 -46 -4 -46 -9z"/>
<path d="M6555 2326 c-112 -75 -169 -122 -158 -128 4 -3 79 -2 165 1 87 3 168
3 180 -1 23 -6 23 -6 1 -7 -31 -1 -37 -18 -11 -32 21 -11 21 -12 3 -25 -10 -8
-28 -14 -39 -13 -19 1 -19 2 2 7 13 4 22 12 20 17 -2 6 -6 9 -10 8 -4 -2 -5 6
-3 17 4 19 -2 20 -118 19 -105 0 -246 -14 -179 -18 16 -1 22 -6 20 -18 -3 -16
8 -19 77 -24 61 -5 83 -3 95 8 13 12 13 15 0 24 -11 8 -8 9 15 6 16 -3 37 -1
47 4 24 13 32 -6 14 -33 -22 -31 -20 -38 8 -38 22 0 85 42 94 63 2 4 36 33 75
63 40 31 71 61 69 66 -1 5 2 7 7 4 8 -5 111 69 111 80 0 3 -5 2 -11 -2 -7 -4
-21 -8 -33 -8 -11 -1 -20 -7 -18 -14 1 -7 -10 -12 -30 -12 -32 0 -32 0 -11 15
12 8 32 19 45 24 16 7 -7 10 -84 10 -102 1 -110 -1 -158 -29 -70 -41 -110 -72
-105 -80 4 -6 -12 -7 -50 -1 -5 1 25 24 68 51 42 27 77 52 77 55 0 3 -19 5
-42 4 -35 -1 -60 -12 -133 -63z m305 -47 c25 -20 25 -20 -17 0 -48 24 -57 26
-48 10 4 -6 -3 -13 -15 -16 l-22 -6 23 -13 c13 -7 32 -13 42 -14 9 0 17 -5 17
-11 0 -6 -6 -9 -12 -6 -7 3 -40 18 -73 32 -33 14 -49 24 -35 21 39 -8 69 3 65
24 -3 16 0 17 23 9 15 -5 38 -19 52 -30z m41 23 c-7 -2 -18 1 -23 6 -8 8 -4 9
13 5 13 -4 18 -8 10 -11z m-226 -22 c3 -6 -1 -7 -9 -4 -18 7 -21 14 -7 14 6 0
13 -4 16 -10z m125 -85 c0 -1 -9 -10 -19 -19 -19 -17 -19 -17 -15 1 3 11 12
20 20 20 8 0 14 -1 14 -2z m-250 -50 c8 -2 -15 -3 -52 -3 -37 1 -66 4 -63 7 3
6 86 3 115 -4z"/>
<path d="M7136 2380 c-35 -11 -68 -39 -59 -53 3 -6 1 -7 -6 -3 -13 8 -88 -52
-83 -67 1 -5 -1 -6 -6 -3 -4 2 -25 -10 -46 -28 l-39 -32 44 2 c68 2 149 16
155 25 3 5 14 9 26 9 38 0 -1 -30 -41 -31 -30 -2 -32 -3 -8 -6 15 -2 25 -8 22
-13 -10 -16 34 -33 51 -20 7 7 11 16 8 21 -3 5 0 8 6 7 7 -2 17 5 23 15 10 14
9 20 -3 27 -9 6 -10 10 -3 10 6 0 15 -5 18 -10 4 -6 12 -5 21 4 16 16 19 30 5
21 -5 -3 -13 0 -17 6 -4 7 -3 9 4 5 6 -3 13 -2 17 4 4 6 10 8 15 5 8 -5 25 12
32 30 1 6 6 9 9 8 3 -1 19 11 34 27 16 17 25 30 19 30 -5 0 -2 5 6 10 11 8 6
10 -20 8 -22 -2 -34 -8 -32 -16 2 -13 -36 -10 -83 8 -30 11 -30 11 -69 0z
m-46 -85 c19 -7 28 -14 20 -14 -8 0 -28 6 -45 14 -39 17 -21 18 25 0z m-10
-40 c-14 -16 -80 -17 -80 -1 0 8 14 10 41 8 32 -3 40 -1 34 8 -5 9 -4 11 4 6
9 -6 9 -11 1 -21z m73 -12 c-7 -2 -19 -2 -25 0 -7 3 -2 5 12 5 14 0 19 -2 13
-5z m-166 -9 c-3 -3 -12 -4 -19 -1 -8 3 -5 6 6 6 11 1 17 -2 13 -5z m193 -24
c0 -5 -2 -10 -4 -10 -3 0 -8 5 -11 10 -3 6 -1 10 4 10 6 0 11 -4 11 -10z"/>
<path d="M7250 2379 c0 -5 5 -7 10 -4 6 3 10 8 10 11 0 2 -4 4 -10 4 -5 0 -10
-5 -10 -11z"/>
<path d="M7448 2383 c7 -3 16 -2 19 1 4 3 -2 6 -13 5 -11 0 -14 -3 -6 -6z"/>
<path d="M7595 2379 c-4 -6 -40 -9 -91 -8 -80 2 -122 -10 -109 -31 3 -4 -3
-14 -13 -21 -16 -13 -16 -12 -2 6 14 20 14 20 -7 1 -13 -10 -20 -23 -17 -28 3
-4 0 -7 -8 -6 -7 2 -12 -3 -10 -9 1 -7 -4 -12 -10 -10 -7 1 -12 -4 -10 -11 1
-8 -2 -11 -7 -8 -5 4 -19 -6 -31 -21 l-22 -28 74 -5 c50 -4 67 -8 55 -14 -9
-5 -47 -6 -83 -4 -51 3 -64 1 -59 -10 2 -7 1 -11 -4 -8 -5 3 -15 -1 -22 -10
-11 -14 -4 -15 67 -10 85 6 174 -1 174 -15 0 -5 -6 -6 -12 -4 -7 3 -40 1 -73
-5 l-60 -9 69 3 c42 3 63 1 55 -5 -9 -6 -10 -9 -2 -9 6 0 20 12 31 28 35 51
35 52 -3 50 -19 -1 -38 2 -42 5 -3 4 15 7 40 7 42 0 49 3 67 32 10 17 16 36
13 42 -3 6 -3 8 2 4 4 -4 23 16 41 45 18 28 29 54 23 55 -5 2 -7 8 -3 13 3 5
3 9 0 9 -3 0 -8 -5 -11 -11z m-215 -139 c0 -5 -15 -10 -32 -10 -25 0 -29 3
-18 10 20 13 50 13 50 0z m57 -6 c-3 -3 -12 -4 -19 -1 -8 3 -5 6 6 6 11 1 17
-2 13 -5z m-114 -71 c-7 -2 -19 -2 -25 0 -7 3 -2 5 12 5 14 0 19 -2 13 -5z"/>
<path d="M7681 2358 c-19 -31 -19 -34 -3 -40 14 -5 13 -7 -5 -7 -21 -1 -66
-59 -66 -87 0 -7 -7 -16 -15 -19 -8 -3 -11 -12 -8 -21 3 -8 2 -12 -3 -9 -5 3
-12 1 -16 -5 -3 -5 3 -10 14 -10 10 0 21 5 23 12 6 16 58 1 58 -17 0 -8 -4
-15 -10 -15 -5 0 -10 6 -10 13 0 8 -3 9 -8 1 -4 -6 -25 -14 -46 -17 -37 -6
-65 -21 -55 -31 8 -8 264 -10 278 -2 7 5 11 17 8 27 -3 11 -1 19 5 19 6 0 8 7
4 15 -3 8 -1 15 4 15 5 0 8 12 7 28 -1 18 2 26 11 24 9 -2 11 4 7 18 -4 12 -2
20 5 20 6 0 8 5 5 10 -3 6 -1 10 6 10 6 0 9 8 6 20 -3 11 -2 18 3 15 4 -3 11
3 14 12 4 9 1 20 -6 25 -10 6 -8 8 5 8 9 0 17 5 17 10 0 6 -41 10 -104 10
l-104 0 -21 -32z m7 -118 c13 -7 6 -9 -25 -8 -24 1 -43 4 -43 7 0 11 51 12 68
1z m85 -7 c-7 -2 -21 -2 -30 0 -10 3 -4 5 12 5 17 0 24 -2 18 -5z m-156 -39
c-3 -3 -12 -4 -19 -1 -8 3 -5 6 6 6 11 1 17 -2 13 -5z m141 -40 c-7 -6 -77 -8
-83 -2 -3 3 15 6 41 6 26 1 44 -1 42 -4z m39 0 c-3 -3 -12 -4 -19 -1 -8 3 -5
6 6 6 11 1 17 -2 13 -5z"/>
<path d="M7940 2291 c-16 -54 -30 -101 -30 -105 0 -5 117 1 140 8 3 0 21 -15
40 -34 23 -23 35 -30 38 -21 4 11 6 11 14 0 7 -10 8 -8 5 9 -3 12 -2 22 3 22
4 0 11 21 15 48 3 26 12 68 20 94 7 25 11 49 8 52 -4 3 -1 6 5 6 7 0 12 5 12
10 0 6 -47 10 -120 10 l-119 0 -31 -99z"/>
<path d="M8265 2368 c-2 -13 -15 -72 -28 -133 l-24 -110 41 -7 c23 -3 64 -7
92 -7 l51 -1 12 118 c7 64 14 127 17 140 4 21 2 22 -76 22 -74 0 -80 -1 -85
-22z"/>
<path d="M6332 2339 c-25 -10 -122 -77 -219 -151 -34 -26 -85 -57 -114 -67
-52 -20 -89 -46 -89 -63 0 -6 47 -8 113 -6 l112 3 75 61 c41 33 102 79 135
101 33 22 83 61 110 86 l50 46 -75 0 c-41 0 -85 -4 -98 -10z m-117 -178 c-37
-27 -74 -47 -82 -44 -16 6 2 21 81 65 76 42 77 34 1 -21z"/>
<path d="M6921 2182 c-19 -2 -45 -12 -58 -22 l-23 -18 42 2 c23 1 44 8 46 14
2 7 8 12 13 12 6 0 7 -4 4 -10 -4 -6 6 -10 22 -10 20 0 24 3 14 9 -10 6 -5 11
18 16 18 4 35 4 38 1 4 -3 -1 -6 -10 -6 -9 0 -17 -4 -17 -8 0 -7 25 -8 49 -3
2 1 -2 8 -9 16 -12 14 -38 15 -129 7z"/>
<path d="M6314 2150 c-37 -15 -35 -27 5 -38 34 -8 39 -7 34 6 -4 10 -2 13 5 8
6 -3 13 -2 17 3 3 6 -3 15 -14 20 -22 12 -19 12 -47 1z"/>
<path d="M7930 2130 c-9 -6 -10 -10 -3 -10 6 0 15 5 18 10 8 12 4 12 -15 0z"/>
<path d="M7981 2124 c0 -11 3 -14 6 -6 3 7 2 16 -1 19 -3 4 -6 -2 -5 -13z"/>
<path d="M6820 2117 c-45 -11 -37 -17 26 -17 31 0 53 4 50 9 -4 5 0 12 6 14
20 8 -48 3 -82 -6z"/>
<path d="M6926 2115 c4 -8 10 -12 15 -9 14 8 10 24 -6 24 -9 0 -12 -6 -9 -15z"/>
<path d="M6960 2126 c0 -2 9 -6 20 -9 11 -3 18 -1 14 4 -5 9 -34 13 -34 5z"/>
<path d="M7040 2120 c-12 -8 -9 -10 13 -10 16 0 26 4 22 10 -8 12 -16 12 -35
0z"/>
<path d="M7188 2113 c-7 -9 -3 -11 18 -7 45 8 61 21 25 20 -18 0 -37 -6 -43
-13z"/>
<path d="M7280 2120 c-12 -7 -10 -9 8 -7 12 0 22 5 22 9 0 11 -12 10 -30 -2z"/>
<path d="M6230 2072 l-25 -21 142 -1 c126 0 171 7 145 24 -5 3 -60 8 -123 12
-106 6 -116 5 -139 -14z"/>
<path d="M6770 2075 c-11 -13 8 -15 159 -15 145 0 171 2 171 15 0 13 -24 15
-159 15 -129 0 -161 -3 -171 -15z"/>
<path d="M6547 2073 c-18 -17 -1 -23 67 -23 79 0 109 6 100 21 -6 10 -157 12
-167 2z"/>
<path d="M7150 2070 c0 -6 51 -10 145 -10 80 0 145 4 145 9 0 5 -65 10 -145
10 -95 1 -145 -2 -145 -9z"/>
<path d="M7503 2073 c-7 -2 -13 -9 -13 -15 0 -6 42 -7 113 -4 61 3 131 5 155
6 26 0 41 4 37 10 -6 10 -268 13 -292 3z"/>
<path d="M7890 2071 c-45 -13 3 -21 120 -21 101 0 142 9 104 24 -21 8 -192 6
-224 -3z"/>
<path d="M8195 2071 c-7 -13 4 -17 40 -15 17 1 58 2 93 3 34 0 62 6 62 11 0
13 -187 13 -195 1z"/>
</g>
</svg>
